<svg width="153" height="160" viewBox="0 0 153 160" fill="none" xmlns="http://www.w3.org/2000/svg">
<g clip-path="url(#clip0_317_1317)">
<path d="M0.861328 157.193L88.0857 69.9689" stroke="#222222" stroke-width="0.450539" stroke-miterlimit="10"/>
<path d="M151.873 0V133.265" stroke="#222222" stroke-width="0.450539" stroke-miterlimit="10"/>
<path d="M126.723 0V133.265" stroke="#222222" stroke-width="0.450539" stroke-miterlimit="10"/>
<path d="M124.902 10.6103L123.402 10.7049C121.699 10.813 120.604 10.8626 120.113 10.8626C117.833 10.8626 116.27 10.5202 115.418 9.83986C115.139 9.65063 114.927 9.55151 114.779 9.55151C114.589 9.55151 114.49 9.65964 114.49 9.8714C114.49 10.1282 114.639 10.4886 114.936 10.9572C115.765 12.3404 116.734 13.0342 117.842 13.0342C118.248 13.0342 118.685 12.9396 119.153 12.7458C120.325 12.2547 122.357 11.8988 125.254 11.6781C126.979 11.5429 128.511 11.4528 129.849 11.3987V10.1778C128.358 10.3715 126.709 10.5157 124.902 10.6103Z" fill="#222222"/>
<path d="M127.967 24.5949C125.647 26.7665 122.583 28.1722 118.772 28.8075C118.497 28.8525 118.272 28.9336 118.101 29.0643C117.929 29.1904 117.844 29.3211 117.844 29.4473C117.844 29.5554 117.911 29.6455 118.051 29.7176C118.191 29.7942 118.398 29.8302 118.673 29.8302C118.781 29.8302 118.979 29.8077 119.281 29.7671C123.178 29.1724 126.314 27.9379 128.702 26.0637C129.107 25.7483 129.486 25.4239 129.851 25.1041V22.572C129.265 23.2884 128.639 23.9642 127.967 24.5904V24.5949Z" fill="#222222"/>
<path d="M128.192 51.5418C126.575 52.9024 124.966 53.9386 123.371 54.637C123.011 54.7856 122.826 54.9478 122.826 55.1145C122.826 55.2812 122.966 55.3713 123.241 55.3713C123.389 55.3713 123.538 55.3398 123.687 55.2767C125.241 54.6595 126.633 53.9747 127.868 53.2178C128.489 52.8393 129.147 52.3753 129.846 51.8391V50.028C129.314 50.5461 128.769 51.0507 128.188 51.5418H128.192Z" fill="#222222"/>
<path d="M128.796 87.4947C128.562 87.4947 128.444 87.4001 128.444 87.2064C128.444 86.4405 128.453 85.7466 128.476 85.1294C128.517 83.4669 128.539 81.6062 128.539 79.5427C128.539 78.2226 128.589 77.2179 128.683 76.5241C128.778 75.8348 128.895 75.2986 129.035 74.9292C129.174 74.5553 129.242 74.3075 129.242 74.1768C129.242 74.1543 129.219 74.0371 129.179 73.8254C128.99 73.0595 128.544 72.4783 127.854 72.0863C127.16 71.6943 126.467 71.4961 125.764 71.4961C125.507 71.4961 125.295 71.5276 125.124 71.5907C124.953 71.6538 124.867 71.7484 124.867 71.879C124.867 72.0277 125.007 72.2079 125.282 72.4197C125.602 72.654 125.84 72.8838 125.998 73.1045C126.156 73.3298 126.295 73.7533 126.413 74.3795C126.53 75.0058 126.597 75.9474 126.62 77.2044V78.5155C126.62 80.6015 126.543 82.5658 126.395 84.404C126.246 86.2467 126.097 87.3686 125.948 87.7741C125.84 88.0084 125.791 88.2652 125.791 88.54C125.791 88.968 125.921 89.3239 126.192 89.6078C126.458 89.8961 126.773 90.1124 127.133 90.261C127.494 90.4097 127.791 90.4953 128.025 90.5179C128.386 90.5404 128.692 90.4818 128.936 90.3422C129.098 90.252 129.4 90.0403 129.846 89.7114V87.1749C129.404 87.3776 129.053 87.4812 128.791 87.4812L128.796 87.4947Z" fill="#222222"/>
<path d="M120.001 88.932C121.353 86.6342 122.105 83.8454 122.254 80.5654C122.295 79.6283 122.443 78.6506 122.7 77.6279C122.826 77.245 122.889 76.9341 122.889 76.6998C122.889 76.4025 122.741 76.0916 122.443 75.7762C122.083 75.3932 121.583 75.0914 120.943 74.8661C120.303 74.6408 119.709 74.5327 119.154 74.5327C118.898 74.5327 118.69 74.5643 118.533 74.6273C118.375 74.6904 118.294 74.776 118.294 74.8841C118.294 75.0734 118.497 75.2986 118.902 75.5554C119.326 75.8303 119.636 76.3123 119.826 76.9927C120.015 77.673 120.114 78.6732 120.114 79.9933C120.114 83.4219 119.578 86.2242 118.501 88.4048C117.424 90.5854 115.748 92.4011 113.473 93.8473C112.707 94.3564 112.324 94.7214 112.324 94.9331C112.324 95.0413 112.419 95.0908 112.613 95.0908C112.973 95.0908 113.487 94.9106 114.144 94.5457C116.699 93.0994 118.65 91.2252 120.001 88.9274V88.932Z" fill="#222222"/>
<path d="M128.513 120.826L119.926 122.231C119.606 122.276 119.363 122.254 119.192 122.168C119.02 122.083 118.935 121.943 118.935 121.754C118.935 121.542 119.029 121.308 119.223 121.051C120.48 119.348 121.692 117.348 122.864 115.05C123.607 113.541 124.567 111.441 125.738 108.76C126.567 106.782 127.099 105.665 127.333 105.408C127.504 105.237 127.59 105.025 127.59 104.769C127.59 104.259 127.261 103.687 126.599 103.061C125.941 102.435 125.256 101.971 124.553 101.673C124.278 101.565 124.062 101.516 123.913 101.516C123.616 101.516 123.467 101.642 123.467 101.899C123.467 102.025 123.517 102.169 123.611 102.331C123.706 102.493 123.85 102.633 124.044 102.764C124.278 102.935 124.395 103.327 124.395 103.944C124.395 105.093 124.012 106.769 123.247 108.972C122.481 111.175 121.476 113.486 120.228 115.901C118.984 118.316 117.678 120.398 116.317 122.141C116.146 122.376 115.961 122.547 115.759 122.65C115.556 122.759 115.308 122.831 115.006 122.876C114.538 122.916 114.218 122.939 114.047 122.939C113.686 122.939 113.506 123.087 113.506 123.385C113.506 123.682 113.677 124.038 114.015 124.453C114.353 124.867 114.772 125.228 115.258 125.538C115.75 125.849 116.227 126.002 116.696 126.002C116.993 126.002 117.281 125.917 117.556 125.746C119.439 124.471 123.539 123.241 129.847 122.047V120.587C129.338 120.677 128.887 120.758 128.509 120.826H128.513Z" fill="#222222"/>
<path d="M129.629 114.599C129.629 114.707 129.71 114.856 129.85 115.027V114.415C129.705 114.428 129.629 114.487 129.629 114.599Z" fill="#222222"/>
<path d="M120.88 146.497C120.708 146.497 120.519 146.723 120.303 147.169C119.857 148.146 119.479 149.088 119.168 149.994C118.857 150.899 118.609 151.926 118.415 153.075C118.352 153.395 118.267 153.553 118.158 153.553C118.01 153.553 117.852 153.35 117.681 152.945C117.51 152.539 117.361 151.985 117.235 151.287C117.109 150.584 117.046 149.786 117.046 148.89C117.046 145.997 117.703 143.1 119.023 140.203C119.172 139.884 119.249 139.523 119.249 139.118C119.249 138.329 118.965 137.536 118.402 136.739C117.839 135.941 117.28 135.392 116.726 135.094C116.663 135.054 116.568 135.031 116.437 135.031C116.181 135.031 116.054 135.126 116.054 135.32C116.054 135.405 116.108 135.522 116.212 135.671C116.852 136.437 117.172 137.266 117.172 138.163C117.172 138.334 117.127 138.654 117.046 139.122C116.491 141.506 116.072 143.578 115.784 145.331C115.496 147.083 115.352 148.732 115.352 150.264C115.352 153.287 116 155.842 117.298 157.928C117.424 158.117 117.618 158.284 117.875 158.423C118.131 158.563 118.384 158.63 118.64 158.63C118.915 158.63 119.145 158.536 119.325 158.342C119.506 158.148 119.596 157.865 119.596 157.482C119.596 157.396 119.573 157.207 119.533 156.905C119.447 156.459 119.406 155.927 119.406 155.31C119.406 153.99 119.573 152.688 119.902 151.399C120.231 150.111 120.6 148.863 121.006 147.646C121.091 147.412 121.132 147.187 121.132 146.975C121.132 146.655 121.046 146.497 120.875 146.497H120.88Z" fill="#222222"/>
<path d="M137.676 154.859C137.293 154.562 136.847 154.413 136.333 154.413C136.248 154.413 136.099 154.436 135.887 154.476C134.526 154.796 133.193 154.954 131.895 154.954C130.535 154.954 129.399 154.765 128.494 154.377C127.588 153.994 126.926 153.49 126.498 152.859C126.07 152.228 125.858 151.566 125.858 150.863C125.858 150.417 125.944 149.971 126.115 149.521C126.178 149.349 126.273 149.115 126.403 148.818C126.529 148.52 126.592 148.318 126.592 148.209C126.592 148.038 126.484 147.953 126.273 147.953C126.101 147.93 125.885 148.16 125.619 148.637C125.353 149.115 125.187 149.494 125.124 149.773C124.975 150.431 124.898 151.048 124.898 151.625C124.898 153.265 125.538 154.612 126.813 155.661C128.088 156.716 130.314 157.189 133.486 157.081C135.292 157.018 136.658 156.837 137.572 156.535C138.018 156.387 138.243 156.143 138.243 155.801C138.243 155.459 138.054 155.143 137.667 154.841L137.676 154.859Z" fill="#222222"/>
<path d="M131.928 141.163C131.568 141.42 131.094 141.78 130.509 142.249C129.923 142.717 129.491 143.109 129.216 143.429C129.004 143.709 128.896 143.929 128.896 144.101C128.896 144.272 128.972 144.357 129.121 144.357C129.31 144.357 129.513 144.231 129.729 143.974C130.283 143.38 130.905 142.893 131.599 142.524C132.288 142.15 133.158 141.762 134.203 141.357C135.118 140.996 135.762 140.699 136.136 140.465C136.51 140.23 136.695 139.942 136.695 139.604C136.695 139.37 136.51 139.127 136.136 138.87C135.762 138.613 135.28 138.518 134.685 138.581C132.622 138.793 131.099 138.901 130.121 138.901C129.31 138.901 128.576 138.847 127.918 138.744C127.558 138.681 127.238 138.59 126.958 138.473C126.684 138.356 126.512 138.289 126.449 138.266C126.175 138.095 125.949 138.009 125.778 138.009C125.67 138.009 125.571 138.036 125.476 138.09C125.382 138.144 125.332 138.226 125.332 138.329C125.332 138.415 125.373 138.509 125.458 138.618C125.692 138.915 126.093 139.23 126.657 139.559C127.22 139.888 127.824 140.118 128.459 140.244L129.833 140.433C130.599 140.519 131.167 140.6 131.54 140.672C131.914 140.749 132.099 140.848 132.099 140.974C132.099 141.037 132.045 141.1 131.941 141.163H131.928Z" fill="#222222"/>
<path d="M80.6968 79.9663C79.7507 79.0922 78.5433 78.5831 77.0745 78.4344C76.8402 78.4119 76.6555 78.4389 76.5158 78.5155C76.3762 78.5921 76.3086 78.6912 76.3086 78.8174C76.3086 78.9255 76.3491 79.0156 76.4347 79.0877C76.5203 79.1643 76.6285 79.2094 76.7546 79.2319C78.0522 79.4031 78.9938 80.0248 79.5795 81.1016C80.1652 82.1784 80.4581 83.4805 80.4581 85.0123C80.4581 85.7377 80.3815 86.5261 80.2328 87.3731C80.1472 87.8011 80.2328 88.1526 80.5031 88.4274C80.7689 88.7022 81.1158 88.8419 81.5394 88.8419C82.0304 88.8419 82.4585 88.6346 82.8324 88.2201C83.2064 87.8057 83.3911 87.2019 83.3911 86.418C83.3911 85.3547 83.1793 84.2329 82.7513 83.048C82.3233 81.863 81.6385 80.8403 80.6923 79.9663H80.6968Z" fill="#222222"/>
<path d="M58.3633 84.0213C58.3633 86.2154 58.6787 88.0266 59.3049 89.4638C59.9312 90.901 60.7917 92.0859 61.873 93.023C62.5533 93.5997 63.2967 94.0458 64.1077 94.3657C64.9186 94.6855 65.608 94.8432 66.1846 94.8432C66.3784 94.8432 66.6352 94.7801 66.9686 94.6495C67.2975 94.5233 67.5903 94.3431 67.8471 94.1088C68.1039 93.8746 68.2301 93.5997 68.2301 93.2798C68.2301 93.005 68.122 92.7167 67.9102 92.4193C67.5903 91.9958 67.4326 91.4101 67.4326 90.6622C67.4326 89.7026 67.694 88.6033 68.2166 87.3598C68.7392 86.1163 69.37 84.8953 70.1179 83.7059C70.2035 83.5572 70.244 83.4085 70.244 83.2599C70.244 82.985 70.1269 82.8454 69.8926 82.8454C69.6808 82.8454 69.4556 82.9715 69.2213 83.2283C68.604 83.9717 68.0274 84.8503 67.4957 85.864C66.9641 86.8777 66.3468 88.2338 65.644 89.9368C65.4953 90.2973 65.2791 90.5811 64.9907 90.7839C64.7024 90.9866 64.378 91.0857 64.0176 91.0857C63.3372 91.0857 62.6659 90.7343 62.0081 90.0315C61.3504 89.3286 60.8367 88.3059 60.4763 86.9678C60.2826 86.265 60.188 85.427 60.188 84.4448C60.188 83.2328 60.3276 81.9758 60.6025 80.6783C60.8773 79.3807 61.2287 78.3174 61.6567 77.4839C61.8505 77.146 61.9451 76.8126 61.9451 76.4928C61.9451 75.835 61.5846 75.1096 60.8593 74.3212C60.7106 74.15 60.3952 73.9337 59.9176 73.6679C59.4401 73.4021 59.1247 73.2489 58.976 73.2038C58.8679 73.1813 58.7733 73.1993 58.6877 73.2534C58.6021 73.3074 58.5615 73.3885 58.5615 73.4922C58.5615 73.6183 58.6561 73.7805 58.8499 73.9697C59.0436 74.0959 59.2193 74.2716 59.377 74.4969C59.5347 74.7221 59.6158 74.9699 59.6158 75.2493C59.6158 75.398 59.6068 75.5061 59.5842 75.5692C58.7733 78.8671 58.3723 81.6875 58.3723 84.0303L58.3633 84.0213Z" fill="#222222"/>
<path d="M76.917 124.529C77.0431 124.529 77.2053 124.592 77.3946 124.723C78.0343 125.277 78.4668 125.683 78.7011 125.935C79.1472 126.381 79.5526 126.606 79.9131 126.606C80.1699 126.606 80.3771 126.498 80.5348 126.286C80.697 126.075 80.7736 125.809 80.7736 125.489C80.7736 124.786 80.3952 124.146 79.6382 123.574C78.8813 122.997 78.0028 122.533 77.0026 122.168C76.5971 122.02 76.3628 121.731 76.2998 121.308C76.1736 120.479 76.0565 119.596 75.9483 118.659C75.8402 117.722 75.7861 116.893 75.7861 116.167C75.7861 114.635 76.0294 113.541 76.5205 112.878C77.0116 112.22 77.6379 111.887 78.4038 111.887C78.6606 111.887 78.9084 111.941 79.1517 112.045C79.395 112.153 79.6698 112.311 79.9671 112.522C80.0077 112.563 80.1564 112.662 80.4132 112.811C80.67 112.959 80.9043 113.036 81.116 113.036C81.3908 113.036 81.6296 112.928 81.8324 112.716C82.0351 112.504 82.1342 112.225 82.1342 111.887C82.1342 111.378 81.8955 110.851 81.4134 110.306C80.9358 109.761 80.3141 109.31 79.5481 108.95C78.7822 108.589 77.9938 108.409 77.1873 108.409C76.9305 108.409 76.6286 108.458 76.2772 108.553C75.9258 108.648 75.7501 108.76 75.7501 108.887C75.7501 108.995 75.9123 109.044 76.2277 109.044C76.4214 109.044 76.5475 109.035 76.6106 109.013C77.1648 108.95 77.6424 109.067 78.0478 109.364C78.4533 109.661 78.6561 110.004 78.6561 110.387C78.6561 110.792 78.4308 111.081 77.9848 111.247C75.5158 112.311 74.2813 114.577 74.2813 118.046C74.2813 118.726 74.3354 119.524 74.439 120.443C74.5021 120.952 74.2813 121.209 73.7677 121.209L72.8757 121.177C71.3844 121.177 70.1138 121.506 69.0596 122.168C68.0053 122.826 67.5413 123.786 67.6719 125.043C67.717 125.597 67.9693 126.106 68.4378 126.575C68.9064 127.043 69.4966 127.417 70.2085 127.692C70.9203 127.967 71.6412 128.107 72.362 128.107C73.128 128.107 73.8218 127.949 74.439 127.629C75.0563 127.309 75.5474 126.818 75.9078 126.16C76.097 125.755 76.2367 125.417 76.3223 125.137C76.4304 124.732 76.6196 124.529 76.899 124.529H76.917ZM74.6463 123.763C74.5201 124.529 74.1822 125.16 73.6416 125.647C73.0964 126.138 72.4431 126.381 71.6772 126.381C71.0194 126.381 70.3977 126.201 69.8255 125.836C69.2488 125.475 68.9424 125.092 68.9019 124.687C68.8388 123.962 69.0866 123.398 69.6543 122.993C70.2175 122.587 70.9473 122.385 71.8394 122.385C72.6053 122.385 73.3622 122.524 74.1056 122.799C74.4886 122.97 74.6823 123.227 74.6823 123.565L74.6508 123.754L74.6463 123.763Z" fill="#222222"/>
<path d="M68.0041 104.863C68.0041 104.737 68.0131 104.638 68.0356 104.575C68.1212 104.02 68.1618 103.647 68.1618 103.457C68.1618 103.137 68.0266 102.809 67.7608 102.466C67.495 102.128 67.1525 101.84 66.7381 101.606C66.3236 101.371 65.882 101.254 65.4135 101.254C65.053 101.254 64.7602 101.331 64.5349 101.479C64.3096 101.628 64.2015 101.84 64.2015 102.119C64.2015 102.268 64.2331 102.362 64.2961 102.408C64.3592 102.453 64.4673 102.471 64.616 102.471C65.1251 102.471 65.4991 102.795 65.7333 103.444C65.9676 104.093 66.0848 104.94 66.0848 105.98C66.0848 106.854 66.0082 107.791 65.8595 108.792C65.7514 109.449 65.3819 109.801 64.7422 109.846C63.7014 109.846 62.8589 109.738 62.2191 109.526C61.7281 109.377 61.3181 109.166 60.9892 108.886C60.6603 108.611 60.3449 108.278 60.0475 107.895C59.7907 107.575 59.6105 107.418 59.5024 107.418C59.3762 107.418 59.3087 107.512 59.3087 107.706C59.3087 108.003 59.4033 108.409 59.597 108.918C59.7862 109.427 60.0701 109.918 60.444 110.387C60.818 110.855 61.2775 111.184 61.8317 111.378C62.129 111.504 62.5661 111.567 63.1427 111.567C63.4806 111.567 63.7284 111.558 63.8771 111.535C64.215 111.513 64.4854 111.567 64.6746 111.693C64.8638 111.819 64.9629 112.022 64.9629 112.301C64.9629 112.473 64.9404 112.612 64.8999 112.716C64.4313 114.333 63.7645 115.951 62.904 117.568C62.0434 119.186 61.0477 120.528 59.9169 121.591C59.3627 122.123 59.0879 122.655 59.0879 123.186C59.0879 123.529 59.196 123.804 59.4078 124.015C59.6195 124.227 59.8854 124.335 60.2052 124.335C60.7143 124.335 61.2054 124.069 61.674 123.538C62.7823 122.366 63.769 120.713 64.643 118.573C65.5171 116.433 66.2064 114.257 66.72 112.045C66.8462 111.45 67.2111 111.085 67.8058 110.959C69.2115 110.621 70.5406 110.193 71.7976 109.684C73.0546 109.175 73.6809 108.724 73.6809 108.341C73.6809 108.107 73.5097 107.895 73.1718 107.701C72.8293 107.512 72.4284 107.413 71.9598 107.413C71.4507 107.413 70.9371 107.273 70.428 106.999C69.9189 106.724 69.2881 106.318 68.5447 105.787C68.1843 105.53 67.9996 105.223 67.9996 104.863H68.0041ZM69.7296 107.255C69.9008 107.404 69.9864 107.575 69.9864 107.764C69.9864 108.021 69.8468 108.224 69.5719 108.373C69.189 108.607 68.9322 108.747 68.806 108.787C68.6168 108.873 68.4231 108.913 68.2293 108.913C67.7608 108.913 67.5265 108.647 67.5265 108.116C67.5265 107.99 67.5355 107.891 67.558 107.828L67.6842 107.188C67.7292 106.913 67.8058 106.697 67.923 106.548C68.0401 106.399 68.1843 106.323 68.3555 106.323C68.5267 106.323 68.7159 106.408 68.9322 106.58L69.7296 107.251V107.255Z" fill="#222222"/>
<path d="M80.6968 143.821C79.7507 142.947 78.5433 142.438 77.0745 142.289C76.8402 142.267 76.6555 142.294 76.5158 142.371C76.3762 142.447 76.3086 142.546 76.3086 142.672C76.3086 142.781 76.3491 142.871 76.4347 142.943C76.5203 143.019 76.6285 143.064 76.7546 143.087C78.0522 143.258 78.9938 143.88 79.5795 144.957C80.1652 146.033 80.4581 147.335 80.4581 148.867C80.4581 149.593 80.3815 150.381 80.2328 151.228C80.1472 151.656 80.2328 152.008 80.5031 152.282C80.7689 152.557 81.1158 152.697 81.5394 152.697C82.0304 152.697 82.4585 152.49 82.8324 152.075C83.2064 151.661 83.3911 151.057 83.3911 150.273C83.3911 149.21 83.1793 148.088 82.7513 146.903C82.3233 145.718 81.6385 144.695 80.6923 143.821H80.6968Z" fill="#222222"/>
<path d="M69.8933 146.696C69.6816 146.696 69.4563 146.822 69.222 147.079C68.6048 147.822 68.0281 148.701 67.4965 149.714C66.9648 150.728 66.3476 152.084 65.6447 153.787C65.4961 154.148 65.2798 154.431 64.9915 154.634C64.7031 154.837 64.3787 154.936 64.0183 154.936C63.338 154.936 62.6667 154.585 62.0089 153.882C61.3511 153.179 60.8375 152.156 60.4771 150.818C60.2833 150.115 60.1887 149.277 60.1887 148.295C60.1887 147.083 60.3284 145.826 60.6032 144.529C60.878 143.231 61.2295 142.168 61.6575 141.334C61.8512 140.996 61.9458 140.663 61.9458 140.343C61.9458 139.685 61.5854 138.96 60.86 138.171C60.7113 138 60.396 137.784 59.9184 137.518C59.4408 137.252 59.1254 137.099 58.9768 137.054C58.8686 137.032 58.774 137.05 58.6884 137.104C58.6028 137.158 58.5623 137.239 58.5623 137.343C58.5623 137.469 58.6569 137.631 58.8506 137.82C59.0443 137.946 59.2201 138.122 59.3777 138.347C59.5354 138.572 59.6165 138.82 59.6165 139.1C59.6165 139.248 59.6075 139.356 59.585 139.419C58.774 142.717 58.373 145.538 58.373 147.881C58.373 150.075 58.6884 151.886 59.3147 153.323C59.9409 154.76 60.8015 155.945 61.8828 156.882C62.5631 157.459 63.3065 157.905 64.1174 158.225C64.9284 158.545 65.6177 158.703 66.1944 158.703C66.3881 158.703 66.6449 158.639 66.9783 158.509C67.3072 158.383 67.6001 158.202 67.8569 157.968C68.1137 157.734 68.2399 157.459 68.2399 157.139C68.2399 156.864 68.1317 156.576 67.92 156.279C67.6001 155.855 67.4424 155.269 67.4424 154.522C67.4424 153.562 67.7037 152.463 68.2263 151.219C68.749 149.976 69.3797 148.755 70.1276 147.565C70.2132 147.417 70.2538 147.268 70.2538 147.119C70.2538 146.844 70.1366 146.705 69.9023 146.705L69.8933 146.696Z" fill="#222222"/>
<path d="M27.1722 40.8504C26.7036 40.8504 26.2351 41.0846 25.7665 41.5532C25.4061 41.9136 25.1222 42.1614 24.9195 42.2876C24.7167 42.4137 24.3518 42.4993 23.8202 42.5444C23.5453 42.5669 23.3291 42.5084 23.1804 42.3687C23.0317 42.229 22.9551 42.0353 22.9551 41.7785V39.6069C22.9551 39.3095 23.0047 39.0933 23.0993 38.9536C23.1939 38.8139 23.3381 38.6607 23.5318 38.4895C23.6805 38.3634 23.7886 38.2598 23.8517 38.1877C23.9148 38.1111 23.9373 38.003 23.9148 37.8543C23.8923 37.6831 23.7571 37.4668 23.5003 37.201C23.2435 36.9352 22.9326 36.7099 22.5587 36.5297C22.1847 36.3495 21.8288 36.2684 21.4909 36.2909C21.2791 36.2909 21.0133 36.4486 20.6934 36.7685C20.4997 36.9397 20.3285 37.0703 20.1663 37.1695C20.0086 37.2641 19.8329 37.3226 19.6392 37.3452H8.40271C7.67734 37.3452 6.64561 37.3046 5.30751 37.219L4.54159 37.1559C4.32984 37.1334 4.16314 37.1875 4.046 37.3136C3.92886 37.4398 3.87029 37.602 3.87029 37.7912C3.87029 37.9624 3.92886 38.1156 4.046 38.2553C4.16314 38.3949 4.32984 38.4535 4.54159 38.431L5.30751 38.3679C6.51946 38.2823 7.55119 38.2417 8.40271 38.2417H12.0115C12.5206 38.2417 12.7774 38.485 12.7774 38.9761C12.7774 39.5078 12.7459 40.0754 12.6828 40.6837C12.6198 41.2919 12.5747 41.6794 12.5567 41.8506C12.4936 42.3417 12.2143 42.5849 11.7277 42.5849H4.5461C3.82073 42.5849 2.78899 42.5444 1.45089 42.4588L0.684975 42.3957C0.473222 42.3732 0.306522 42.4273 0.189382 42.5534C0.072242 42.6796 0.0136719 42.8418 0.0136719 43.031C0.0136719 43.2022 0.072242 43.3554 0.189382 43.495C0.306522 43.6347 0.473222 43.6933 0.684975 43.6707L1.45089 43.6077C2.66284 43.5221 3.69458 43.4815 4.5461 43.4815H11.4123C11.6871 43.4815 11.8899 43.5581 12.0205 43.7068C12.1467 43.8555 12.1917 44.0672 12.1467 44.3466C11.9349 45.3242 11.6781 46.2929 11.3808 47.2525C11.2321 47.6805 10.9347 47.8923 10.4887 47.8923H8.41172C7.68635 47.8923 6.65462 47.8517 5.31652 47.7661L4.5506 47.7031C4.33885 47.6805 4.17215 47.7346 4.05501 47.8608C3.93787 47.9869 3.8793 48.1491 3.8793 48.3383C3.8793 48.5095 3.93787 48.6627 4.05501 48.8024C4.17215 48.9421 4.33885 49.0006 4.5506 48.9781L5.31652 48.915C6.52847 48.8294 7.5602 48.7889 8.41172 48.7889H9.78587C9.99762 48.7889 10.1688 48.8384 10.295 48.933C10.4211 49.0277 10.4887 49.1628 10.4887 49.334C10.4887 49.4421 10.4572 49.5773 10.3941 49.7485C9.22269 52.3887 7.75844 54.5963 6.00584 56.3759C4.24874 58.1556 2.51867 59.4126 0.815632 60.1605C0.495749 60.3092 0.33806 60.4804 0.33806 60.6696C0.33806 60.7777 0.378609 60.8678 0.464211 60.9399C0.549814 61.0165 0.666954 61.0525 0.815632 61.0525C0.878707 61.0525 0.995847 61.03 1.16705 60.9895C2.31593 60.5434 3.46931 59.9397 4.6317 59.1873C5.78958 58.4304 6.88439 57.5203 7.90261 56.457C8.09635 56.2453 8.28557 56.1372 8.4793 56.1372C8.58743 56.1372 8.68205 56.2002 8.76765 56.3264C8.85325 56.4525 8.8938 56.6147 8.8938 56.804L8.86226 61.404C8.86226 61.8094 8.85325 62.1158 8.83072 62.3321L8.79919 63.6431C8.79919 63.8774 8.86677 64.0576 9.00643 64.1838C9.1461 64.3099 9.32181 64.3775 9.53356 64.3775C9.87597 64.3775 10.1914 64.2559 10.4932 64.0081C10.7906 63.7648 10.9392 63.4494 10.9392 63.0665C10.9392 62.7691 11.0339 62.5393 11.2276 62.3816C11.4213 62.2239 11.6962 62.1428 12.0566 62.1428H20.8061C21.1665 62.1428 21.4458 62.2555 21.635 62.4762C21.8243 62.7015 21.9234 63.0034 21.9234 63.3863C21.9234 63.6837 21.9639 63.9225 22.0495 64.1027C22.1351 64.2829 22.3244 64.373 22.6262 64.373C22.9867 64.373 23.3156 64.2559 23.6174 64.0216C23.9148 63.7873 24.0635 63.4674 24.0635 63.0619V56.2273C24.0635 55.9299 24.113 55.7046 24.2076 55.556C24.3022 55.4073 24.4374 55.2676 24.6086 55.1415C24.7348 55.0333 24.8339 54.9432 24.897 54.8711C24.96 54.7946 24.9916 54.6864 24.9916 54.5377C24.9916 54.3665 24.8699 54.1458 24.6266 53.8664C24.3833 53.5916 24.0815 53.3438 23.7346 53.1321C23.3831 52.9203 23.0362 52.8122 22.6983 52.8122C22.5496 52.8122 22.401 52.8617 22.2523 52.9564C22.1036 53.051 21.9639 53.1546 21.8378 53.2582C21.6891 53.3844 21.5224 53.497 21.3422 53.5916C21.162 53.6862 20.9773 53.7358 20.7835 53.7358H11.6196C11.4934 53.7358 11.3087 53.6502 11.0744 53.479C10.9032 53.3528 10.8176 53.2042 10.8176 53.0329C10.8176 52.8617 10.8807 52.6815 11.0113 52.4878C11.606 51.4876 12.1287 50.4559 12.5747 49.3926C12.7639 48.9871 13.0748 48.7844 13.5028 48.7844H20.1438C20.6754 48.7844 20.9412 49.0502 20.9412 49.5818V49.7395C20.9187 49.9963 20.9773 50.19 21.1169 50.3297C21.2566 50.4694 21.4323 50.537 21.6441 50.537C21.9639 50.537 22.2658 50.4153 22.5541 50.172C22.8425 49.9287 22.9867 49.6134 22.9867 49.2304V44.315C22.9867 43.7834 23.2525 43.5176 23.7841 43.5176L28.1904 43.486C28.5508 43.486 28.8302 43.4094 29.0194 43.2607C29.2086 43.1121 29.3077 42.9183 29.3077 42.6841C29.3077 42.4273 29.1906 42.1614 28.9563 41.8866C28.3616 41.2063 27.7759 40.8639 27.1992 40.8639L27.1722 40.8504ZM10.9212 55.6956C10.9212 55.3352 11.0203 55.0559 11.2231 54.8666C11.4258 54.6774 11.6962 54.5783 12.0386 54.5783H20.8826C21.2431 54.5783 21.5224 54.6729 21.7116 54.8666C21.9054 55.0604 22 55.3352 22 55.6956V60.1334C22 60.4759 21.9054 60.7462 21.7116 60.9489C21.5179 61.1517 21.2431 61.2508 20.8826 61.2508L12.0386 61.2192C11.6962 61.2192 11.4258 61.1201 11.2231 60.9174C11.0203 60.7146 10.9212 60.4443 10.9212 60.1019V55.6956ZM20.9142 47.0768C20.9142 47.6085 20.6484 47.8743 20.1167 47.8743H14.1155C13.647 47.8743 13.4127 47.6715 13.4127 47.266C13.4127 47.1399 13.4217 47.0408 13.4442 46.9777C13.7191 46.1262 13.9534 45.2116 14.1471 44.2339C14.2732 43.7428 14.5706 43.4995 15.0392 43.4995H20.1167C20.6484 43.4995 20.9142 43.7654 20.9142 44.297V47.0768ZM20.9142 41.774C20.9142 42.3056 20.6484 42.5714 20.1167 42.5714H15.3275C15.0527 42.5714 14.8409 42.4948 14.7058 42.3462C14.5661 42.1975 14.521 41.9947 14.5616 41.7379C14.6697 40.972 14.7418 40.0754 14.7869 39.0572C14.8274 38.5031 15.1067 38.2282 15.6158 38.2282H19.7968C20.1573 38.2282 20.4366 38.3228 20.6258 38.5166C20.8151 38.7103 20.9142 38.9851 20.9142 39.3456V41.774Z" fill="#222222"/>
<path d="M21.2351 73.8299C20.9377 73.8299 20.7891 73.9246 20.7891 74.1183C20.7891 74.312 20.9468 74.4922 21.2666 74.6589C21.9695 75.0194 22.5056 75.3663 22.8796 75.6952C23.2535 76.0241 23.65 76.4476 24.078 76.9567C24.1005 76.9792 24.2807 77.191 24.6186 77.5965C24.916 77.9163 25.2674 78.074 25.6729 78.074C25.9477 78.074 26.1775 77.9974 26.3577 77.8488C26.5379 77.7001 26.6281 77.4973 26.6281 77.2405C26.6281 76.7494 26.2451 76.2088 25.4792 75.6141C24.7133 75.0194 23.4878 74.4562 21.8073 73.9201C21.5955 73.857 21.4018 73.8254 21.2306 73.8254L21.2351 73.8299Z" fill="#222222"/>
<path d="M25.0824 73.1092C25.4563 73.3975 25.8348 73.7534 26.2178 74.177C26.5376 74.5374 26.7945 74.7942 26.9837 74.9429C27.2405 75.1772 27.5469 75.2943 27.9118 75.2943C28.1686 75.2943 28.3849 75.2177 28.5651 75.069C28.7453 74.9203 28.8354 74.7266 28.8354 74.4923C28.8354 74.0238 28.4569 73.5192 27.7 72.974C26.9431 72.4289 25.7357 71.9468 24.0777 71.5233C23.9515 71.4827 23.7803 71.4602 23.5686 71.4602C23.3974 71.4602 23.2667 71.4872 23.1676 71.5413C23.073 71.5954 23.0234 71.6629 23.0234 71.7485C23.0234 71.9603 23.2037 72.145 23.5641 72.2892C24.2039 72.546 24.7085 72.8163 25.0824 73.1047V73.1092Z" fill="#222222"/>
<path d="M19.2522 78.2003C19.081 78.2003 18.9503 78.2318 18.8512 78.2949C18.7566 78.358 18.707 78.4436 18.707 78.5517C18.707 78.6599 18.7611 78.7635 18.8647 78.8716C18.9728 78.9797 19.1305 79.0744 19.3423 79.16C20.5362 79.606 21.5184 80.1872 22.2978 80.899C23.0728 81.6109 23.6494 82.3498 24.0234 83.1202C24.3973 83.8861 24.5821 84.5799 24.5821 85.1972C24.5821 85.3233 24.5595 85.4945 24.519 85.7063C24.3703 86.2605 24.091 86.6524 23.69 86.8867C23.2845 87.121 22.6042 87.3012 21.6445 87.4274C21.2841 87.4904 21.1039 87.6616 21.1039 87.9365C21.1039 88.0626 21.158 88.1707 21.2616 88.2563C21.3697 88.3419 21.5184 88.3825 21.7076 88.3825L21.9329 88.351C22.1266 88.3104 22.424 88.2879 22.825 88.2879C23.1223 88.2879 23.5278 88.3104 24.0369 88.351C24.5055 88.3915 24.8569 88.414 25.0912 88.414C25.6453 88.414 26.1139 88.3014 26.4969 88.0806C26.8798 87.8554 27.1772 87.4364 27.3889 86.8191C27.4745 86.5848 27.5151 86.319 27.5151 86.0217C27.5151 85.1476 27.1591 84.17 26.4473 83.0842C25.7354 81.9984 24.7713 81.0027 23.5593 80.0971C22.3474 79.1915 21.0273 78.5698 19.5991 78.2273C19.5135 78.2048 19.3964 78.1958 19.2477 78.1958L19.2522 78.2003Z" fill="#222222"/>
<path d="M5.07786 87.9724C3.90646 89.6529 2.60891 91.1758 1.1807 92.5364C0.860814 92.8788 0.703125 93.2482 0.703125 93.6537C0.703125 93.9961 0.802244 94.28 1.00499 94.5143C1.20773 94.7485 1.44651 94.8657 1.72134 94.8657C2.04123 94.8657 2.32957 94.6945 2.58187 94.3566C3.92448 92.6535 5.17698 90.8334 6.34838 88.896C7.51978 86.9587 8.46592 84.6835 9.19128 82.0614C9.38051 81.318 9.59226 80.7638 9.81303 80.3989C10.0383 80.0384 10.3086 79.8447 10.6285 79.8222C10.8177 79.7997 11.0881 79.7906 11.426 79.7906C12.5118 79.7906 13.3182 80.0249 13.8544 80.4935C14.3455 80.8764 14.7104 81.4351 14.9537 82.1695C15.197 82.9039 15.3186 83.7284 15.3186 84.6429C15.3186 85.8144 15.1474 86.9903 14.8095 88.1707C14.4671 89.3511 14.0075 90.3242 13.4218 91.0902C12.8361 91.8561 12.2144 92.239 11.5521 92.239C11.1061 92.239 10.6285 92.0859 10.1149 91.775C9.60578 91.4686 9.13722 91.0676 8.70921 90.5765C8.4524 90.3017 8.21812 90.1621 8.00637 90.1621C7.92076 90.1621 7.85318 90.1891 7.79912 90.2432C7.74505 90.2972 7.71802 90.3648 7.71802 90.4504C7.71802 90.6396 7.80362 90.8243 7.97483 90.9956C8.67767 91.784 9.17326 92.3742 9.46161 92.7662C9.74995 93.1626 9.89413 93.5366 9.89413 93.9015C9.89413 94.6449 10.2455 95.0189 10.9484 95.0189C11.5251 95.0189 12.2595 94.7531 13.1515 94.2214C14.3455 93.5186 15.3006 92.2931 16.026 90.5495C16.7513 88.8059 17.1118 87.0038 17.1118 85.1521C17.1118 83.832 16.9045 82.6516 16.49 81.6063C16.0755 80.5656 15.4628 79.7997 14.6518 79.3086C13.8859 78.8625 12.8947 78.6373 11.6828 78.6373C11.3223 78.6373 11.034 78.6463 10.8222 78.6688C10.5249 78.6913 10.3041 78.6328 10.169 78.4931C10.0293 78.3534 9.99324 78.1462 10.0563 77.8713C10.1419 77.4028 10.3131 76.745 10.5654 75.8935C10.588 75.7853 10.6826 75.4159 10.8538 74.7761C11.025 74.1364 11.1511 73.4561 11.2367 72.7307C11.2998 72.136 11.1196 71.5818 10.6961 71.0727C10.2681 70.5636 9.63281 70.1806 8.78129 69.9238C8.56954 69.8608 8.3668 69.8292 8.17307 69.8292C7.96131 69.8292 7.7856 69.8653 7.64593 69.9419C7.50627 70.0185 7.43869 70.1086 7.43869 70.2122C7.43869 70.4014 7.64143 70.5411 8.04691 70.6267C8.3668 70.6897 8.59657 70.924 8.73173 71.3295C8.8714 71.735 8.93898 72.1585 8.93898 72.6045C8.93898 73.6047 8.89393 74.5148 8.81283 75.3348C8.72723 76.1548 8.58756 77.1505 8.39834 78.3219C8.31273 78.9616 7.96131 79.3536 7.34407 79.5023C6.06905 79.8222 5.05533 79.9799 4.31194 79.9799C3.65416 79.9799 3.17208 79.8537 2.87472 79.5969C2.64044 79.3852 2.42869 79.277 2.23496 79.277C2.06375 79.277 1.97815 79.3716 1.97815 79.5654C1.97815 79.651 2.03222 79.7997 2.13584 80.0114C2.49627 80.6061 2.9378 81.0702 3.46043 81.3991C3.98305 81.728 4.48765 81.8947 4.97874 81.8947C5.25357 81.8947 5.54192 81.8181 5.83927 81.6694C6.22223 81.4126 6.59618 81.2008 6.95661 81.0296C7.10529 80.9666 7.23144 80.935 7.33957 80.935C7.48825 80.935 7.60539 80.9846 7.69099 81.0792C7.77659 81.1738 7.81714 81.2954 7.81714 81.4441C7.81714 81.5703 7.80813 81.6784 7.7856 81.764C7.14584 84.2104 6.24025 86.2784 5.07336 87.9589L5.07786 87.9724Z" fill="#222222"/>
<path d="M27.6173 110.959C27.3424 110.788 27.0631 110.702 26.7883 110.702C26.2972 110.702 25.8196 110.936 25.3511 111.405C25.0312 111.725 24.7293 111.972 24.441 112.157C24.1526 112.337 23.7967 112.427 23.3732 112.427H16.6692C16.3268 112.427 16.0564 112.328 15.8537 112.126C15.651 111.923 15.5518 111.653 15.5518 111.31V107.575C15.5518 107.215 15.651 106.935 15.8537 106.746C16.0564 106.552 16.3268 106.458 16.6692 106.458L22.5442 106.426C22.9046 106.426 23.184 106.35 23.3732 106.201C23.5669 106.052 23.6615 105.863 23.6615 105.624C23.6615 105.368 23.5444 105.102 23.3101 104.827C23.0353 104.53 22.7334 104.273 22.418 104.061C22.1432 103.89 21.8639 103.804 21.5891 103.804C21.098 103.804 20.6204 104.038 20.1518 104.507C19.832 104.827 19.5301 105.075 19.2417 105.259C18.9534 105.44 18.5975 105.53 18.174 105.53H16.6737C16.3313 105.53 16.0609 105.431 15.8582 105.228C15.6555 105.025 15.5563 104.755 15.5563 104.412V101.029C15.5563 100.88 15.5924 100.741 15.669 100.614C15.7456 100.488 15.8447 100.412 15.9708 100.389C16.3132 100.367 16.4799 100.272 16.4799 100.101C16.4799 99.9521 16.3538 99.8034 16.097 99.6547C15.8402 99.506 15.5203 99.4294 15.1373 99.4294C14.6688 99.4294 14.2813 99.5646 13.9704 99.8304C13.6596 100.096 13.5064 100.497 13.5064 101.029V104.412C13.5064 104.755 13.4118 105.025 13.218 105.228C13.0288 105.431 12.7495 105.53 12.389 105.53H10.3121C9.67229 105.53 9.35241 105.273 9.35241 104.764C9.35241 104.615 9.38395 104.444 9.44703 104.255C9.53263 104.02 9.63625 103.669 9.76691 103.2C9.87504 102.863 10.0237 102.691 10.2129 102.691L10.3391 102.723C10.4878 102.768 10.6004 102.772 10.6725 102.741C10.7491 102.709 10.7851 102.642 10.7851 102.534C10.7851 102.408 10.7401 102.268 10.659 102.119C10.5508 101.907 10.3706 101.732 10.1138 101.592C9.85702 101.452 9.5912 101.385 9.31637 101.385C8.97396 101.385 8.66759 101.502 8.38826 101.736C8.11343 101.97 7.91069 102.331 7.78003 102.822C7.35202 104.674 6.8384 106.201 6.23018 107.404C5.62195 108.607 4.69384 109.742 3.43683 110.806C3.24761 110.954 3.14849 111.116 3.14849 111.283C3.14849 111.45 3.25662 111.54 3.46837 111.54C3.63957 111.54 3.8288 111.463 4.04506 111.315C5.63997 110.314 6.97357 108.94 8.03684 107.197C8.35672 106.688 8.80275 106.431 9.37944 106.431L12.38 106.462C12.7405 106.462 13.0198 106.557 13.209 106.751C13.4028 106.94 13.4974 107.219 13.4974 107.58V111.315C13.4974 111.657 13.4028 111.927 13.209 112.13C13.0198 112.333 12.7405 112.432 12.38 112.432H5.19844C4.47307 112.432 3.44134 112.391 2.10324 112.306L1.33732 112.243C1.12557 112.22 0.958866 112.274 0.841726 112.4C0.724586 112.527 0.666016 112.689 0.666016 112.878C0.666016 113.049 0.724586 113.202 0.841726 113.342C0.958866 113.482 1.12557 113.54 1.33732 113.518L2.10324 113.455C3.31519 113.369 4.34692 113.329 5.19844 113.329H27.7389C28.0993 113.329 28.3787 113.252 28.5679 113.103C28.7616 112.955 28.8563 112.761 28.8563 112.527C28.8563 112.27 28.7391 112.004 28.5048 111.729C28.23 111.432 27.9281 111.175 27.6128 110.963L27.6173 110.959Z" fill="#222222"/>
<path d="M8.14059 128.219C8.43794 127.976 8.58662 127.66 8.58662 127.277C8.58662 126.98 8.68123 126.75 8.87496 126.593C9.0687 126.435 9.34353 126.354 9.70396 126.354H19.1563C19.5167 126.354 19.796 126.466 19.9853 126.687C20.1745 126.908 20.2736 127.214 20.2736 127.597C20.2736 127.895 20.3142 128.133 20.3998 128.314C20.4854 128.494 20.6746 128.584 20.9764 128.584C21.3369 128.584 21.6658 128.467 21.9676 128.233C22.265 127.998 22.4137 127.678 22.4137 127.273V118.686C22.4137 118.388 22.4632 118.163 22.5578 118.014C22.6525 117.866 22.7876 117.726 22.9588 117.6C23.085 117.492 23.1841 117.402 23.2472 117.329C23.3102 117.253 23.3418 117.145 23.3418 116.996C23.3418 116.825 23.2201 116.604 22.9768 116.325C22.7336 116.05 22.4362 115.802 22.0848 115.59C21.7334 115.379 21.3864 115.271 21.0485 115.271C20.8999 115.271 20.7512 115.32 20.6025 115.415C20.4538 115.509 20.3142 115.613 20.188 115.717C20.0393 115.843 19.8726 115.955 19.6924 116.05C19.5122 116.145 19.3275 116.194 19.1337 116.194H9.26693C9.1588 116.194 8.97859 116.109 8.72629 115.937C8.46948 115.766 8.22168 115.631 7.97389 115.523C7.7306 115.415 7.41522 115.365 7.03226 115.365C6.71238 115.365 6.55469 115.482 6.55469 115.717V127.85C6.55469 128.341 6.76644 128.584 7.19445 128.584C7.53686 128.584 7.85224 128.462 8.1541 128.214L8.14059 128.219ZM8.58662 118.176C8.58662 117.816 8.68574 117.537 8.88848 117.347C9.09122 117.158 9.36155 117.059 9.70396 117.059H19.2509C19.6113 117.059 19.8906 117.154 20.0799 117.347C20.2691 117.541 20.3682 117.816 20.3682 118.176V124.371C20.3682 124.714 20.2736 124.984 20.0799 125.187C19.8861 125.39 19.6113 125.489 19.2509 125.489L9.70396 125.457C9.36155 125.457 9.09122 125.358 8.88848 125.155C8.68574 124.953 8.58662 124.682 8.58662 124.34V118.176Z" fill="#222222"/>
<path d="M17.369 140.717C17.1347 140.591 16.9004 140.528 16.6662 140.528C16.4094 140.528 16.2832 140.613 16.2832 140.785C16.2832 140.956 16.4229 141.145 16.6977 141.361C17.3555 141.807 17.8511 142.231 18.1845 142.623C18.5134 143.019 18.8378 143.479 19.1576 144.011L19.6352 144.745C19.9326 145.173 20.3155 145.385 20.7841 145.385C21.0409 145.385 21.2527 145.308 21.4239 145.159C21.5951 145.011 21.6807 144.808 21.6807 144.551C21.6807 144.06 21.3383 143.483 20.6579 142.812C19.9776 142.141 18.8783 141.442 17.369 140.722V140.717Z" fill="#222222"/>
<path d="M23.2298 140.51C22.5585 139.901 21.4682 139.293 19.9588 138.676C19.684 138.568 19.4587 138.518 19.2875 138.518C19.1614 138.518 19.0578 138.545 18.9857 138.599C18.9091 138.653 18.873 138.721 18.873 138.807C18.873 139.018 19.0217 139.203 19.3191 139.352C19.9363 139.694 20.4049 140.032 20.7248 140.375C21.0446 140.717 21.3735 141.131 21.716 141.618C21.9502 142.001 22.162 142.289 22.3557 142.479C22.6531 142.798 22.982 142.956 23.3469 142.956C23.6037 142.956 23.8155 142.88 23.9867 142.731C24.1579 142.582 24.2435 142.379 24.2435 142.123C24.2435 141.654 23.9101 141.118 23.2388 140.51H23.2298Z" fill="#222222"/>
<path d="M14.5928 154.03C13.935 153.224 12.9528 152.102 11.6553 150.678C11.421 150.422 11.1326 150.115 10.7947 149.755C10.4523 149.394 10.0694 148.966 9.64587 148.48L9.1683 148.002C8.74028 147.579 8.43842 147.241 8.25821 146.998C8.07799 146.754 8.0059 146.515 8.05096 146.281C8.32579 145.132 9.8396 143.438 12.5834 141.204C13.2637 140.649 14.0431 140.064 14.9127 139.446C15.8723 138.721 16.5211 138.176 16.859 137.802C17.1969 137.428 17.3681 136.987 17.3681 136.477C17.3681 136.135 17.305 135.766 17.1744 135.36C17.0257 134.914 16.8004 134.468 16.5031 134.017C16.2057 133.571 15.9264 133.346 15.6741 133.346C15.3317 133.346 15.165 133.603 15.165 134.112L15.1965 134.4C15.2371 134.657 15.2596 134.86 15.2596 135.009C15.2596 135.626 15.0298 136.234 14.5748 136.829C14.1152 137.424 13.1961 138.374 11.813 139.672C10.1955 141.163 8.86643 142.492 7.82118 143.664C6.77593 144.835 6.25781 145.826 6.25781 146.633C6.25781 146.907 6.3344 147.133 6.48308 147.304C6.69484 147.601 6.98769 147.984 7.36163 148.453C7.73558 148.921 8.02843 149.295 8.24019 149.57C9.68642 151.359 10.9209 152.985 11.9436 154.454C12.9663 155.923 13.8179 157.486 14.4982 159.149C14.7325 159.725 15.0388 160.009 15.4263 160.009C15.7462 160.009 16.0345 159.811 16.2868 159.419C16.5436 159.022 16.6698 158.572 16.6698 158.063C16.6698 157.617 16.5616 157.18 16.3499 156.752C15.8408 155.752 15.2551 154.846 14.5928 154.039V154.03Z" fill="#222222"/>
<path d="M129.85 0.00012207V10.1778C130.341 10.1147 130.814 10.0471 131.274 9.97055C133.117 9.6732 134.193 9.35332 134.513 9.01091C134.684 8.8397 134.919 8.7541 135.216 8.7541C135.577 8.7541 135.982 8.87124 136.428 9.10552C136.874 9.3398 137.257 9.61463 137.577 9.93451C137.897 10.2544 138.055 10.5427 138.055 10.795C138.055 10.9662 137.928 11.1059 137.672 11.2095C137.5 11.2726 137.347 11.4799 137.208 11.8313C137.068 12.1827 136.874 12.7639 136.617 13.5704C135.829 15.9988 134.91 18.2154 133.855 20.2293C132.981 21.9008 131.639 23.5228 129.846 25.0952V50.019C130.796 49.0954 131.675 48.1357 132.463 47.1265C133.207 46.2119 133.959 45.0135 134.716 43.5357C135.473 42.058 135.851 40.9677 135.851 40.2648C135.851 39.9269 135.743 39.7106 135.532 39.625C135.297 39.5394 135.18 39.4358 135.18 39.3052C135.18 39.197 135.257 39.1069 135.405 39.0348C135.554 38.9582 135.743 38.9222 135.982 38.9222C136.622 38.9222 137.18 39.1114 137.658 39.4989C138.136 39.8819 138.374 40.3189 138.374 40.81C138.374 40.9586 138.343 41.1208 138.28 41.2875C137.874 42.2877 137.334 43.333 136.653 44.4188C135.973 45.5046 135.248 46.5048 134.482 47.4194C134.333 47.5681 134.256 47.7302 134.256 47.8969C134.256 48.1312 134.437 48.4061 134.802 48.7259C135.185 49.0008 135.378 49.3207 135.378 49.6856C135.378 49.8117 135.369 49.9109 135.347 49.9739C135.09 50.6768 134.964 51.9969 134.964 53.9342C134.964 55.8715 135.09 57.4799 135.347 58.6288C135.369 58.7144 135.378 58.8405 135.378 59.0117C135.378 59.5884 135.18 60.1021 134.788 60.5616C134.392 61.0212 134.004 61.2464 133.621 61.2464C133.409 61.2464 133.243 61.1473 133.126 60.9446C133.008 60.7418 132.972 60.44 133.013 60.0345L133.108 58.8856C133.319 55.9075 133.427 53.79 133.427 52.533C133.427 51.9788 133.387 51.276 133.301 50.4245C133.279 50.1902 133.216 50.0145 133.112 49.8973C133.004 49.7802 132.869 49.7216 132.698 49.7216C132.486 49.7216 132.261 49.8162 132.026 50.01C131.265 50.6993 130.54 51.3075 129.855 51.8392V87.1885C130.328 86.9722 130.9 86.6433 131.58 86.2018C132.9 85.3413 134.279 84.2329 135.716 82.8813C137.153 81.5297 138.329 80.1511 139.244 78.7454C139.582 78.2768 139.852 78.0425 140.041 78.0425C140.168 78.0425 140.208 78.1777 140.154 78.4435C140.1 78.7093 139.933 79.0788 139.658 79.5473C139.384 80.0564 138.847 80.8224 138.064 81.8451C137.275 82.8678 136.338 83.9581 135.252 85.116C134.166 86.2739 133.049 87.2921 131.9 88.1661L130.657 89.1258C130.35 89.3601 130.089 89.5583 129.859 89.725V114.419C129.859 114.419 129.9 114.415 129.922 114.415C130.242 114.415 130.616 114.554 131.04 114.829C132.382 115.703 133.792 116.951 135.27 118.582C136.748 120.208 137.744 121.835 138.257 123.452C138.32 123.709 138.352 123.943 138.352 124.155C138.352 124.601 138.212 124.966 137.937 125.241C137.663 125.516 137.343 125.656 136.978 125.656C136.721 125.656 136.482 125.57 136.261 125.399C136.036 125.227 135.883 124.975 135.797 124.633C135.586 123.844 135.275 123.006 134.874 122.11C134.684 121.664 134.265 121.438 133.63 121.438C133.504 121.438 133.27 121.461 132.927 121.502C131.851 121.682 130.832 121.866 129.859 122.051V133.27H148.75V0.00012207H129.859H129.85Z" fill="#222222"/>
<path d="M133.234 119.388C133.234 119.217 133.148 118.996 132.977 118.717C132.148 117.505 131.197 116.374 130.134 115.334C130.012 115.221 129.922 115.122 129.846 115.027V120.582C130.562 120.456 131.4 120.312 132.369 120.154C132.945 120.046 133.229 119.794 133.229 119.388H133.234Z" fill="#222222"/>
<path d="M134.256 13.1964C134.256 11.962 133.607 11.3447 132.31 11.3447C131.58 11.3447 130.755 11.3627 129.85 11.3988V22.5722C131.287 20.8196 132.472 18.8147 133.395 16.5485C133.972 15.1428 134.256 14.0254 134.256 13.1964Z" fill="#222222"/>
</g>
<defs>
<clipPath id="clip0_317_1317">
<rect width="152.098" height="160" fill="white"/>
</clipPath>
</defs>
</svg>
