<?xml version="1.0" encoding="UTF-8"?>
<svg id="_レイヤー_1" data-name="レイヤー 1" xmlns="http://www.w3.org/2000/svg" viewBox="0 0 337.59 355.13">
  <defs>
    <style>
      .cls-1 {
        fill: #251e1c;
      }

      .cls-1, .cls-2 {
        stroke: #251e1c;
        stroke-miterlimit: 10;
      }

      .cls-2 {
        fill: none;
      }
    </style>
  </defs>
  <line class="cls-2" x1="1.91" y1="348.9" x2="195.51" y2="155.3"/>
  <line class="cls-2" x1="337.09" x2="337.09" y2="295.79"/>
  <line class="cls-1" x1="281.27" x2="281.27" y2="295.79"/>
  <g>
    <path d="M277.23,23.55l-3.33.21c-3.78.24-6.21.35-7.3.35-5.06,0-8.53-.76-10.42-2.27-.62-.42-1.09-.64-1.42-.64-.42,0-.64.24-.64.71,0,.57.33,1.37.99,2.41,1.84,3.07,3.99,4.61,6.45,4.61.9,0,1.87-.21,2.91-.64,2.6-1.09,7.11-1.88,13.54-2.37,3.83-.3,7.23-.5,10.2-.62v-2.71c-3.31.43-6.97.75-10.98.96Z"/>
    <path d="M284.03,54.59c-5.15,4.82-11.95,7.94-20.41,9.35-.61.1-1.11.28-1.49.57-.38.28-.57.57-.57.85,0,.24.15.44.46.6.31.17.77.25,1.38.25.24,0,.68-.05,1.35-.14,8.65-1.32,15.61-4.06,20.91-8.22.9-.7,1.74-1.42,2.55-2.13v-5.62c-1.3,1.59-2.69,3.09-4.18,4.48Z"/>
    <path d="M284.53,114.4c-3.59,3.02-7.16,5.32-10.7,6.87-.8.33-1.21.69-1.21,1.06s.31.57.92.57c.33,0,.66-.07.99-.21,3.45-1.37,6.54-2.89,9.28-4.57,1.38-.84,2.84-1.87,4.39-3.06v-4.02c-1.18,1.15-2.39,2.27-3.68,3.36Z"/>
    <path d="M285.87,194.2c-.52,0-.78-.21-.78-.64,0-1.7.02-3.24.07-4.61.09-3.69.14-7.82.14-12.4,0-2.93.11-5.16.32-6.7.21-1.53.47-2.72.78-3.54.31-.83.46-1.38.46-1.67,0-.05-.05-.31-.14-.78-.42-1.7-1.41-2.99-2.94-3.86-1.54-.87-3.08-1.31-4.64-1.31-.57,0-1.04.07-1.42.21-.38.14-.57.35-.57.64,0,.33.31.73.92,1.2.71.52,1.24,1.03,1.59,1.52.35.5.66,1.44.92,2.83.26,1.39.41,3.48.46,6.27v2.91c0,4.63-.17,8.99-.5,13.07-.33,4.09-.66,6.58-.99,7.48-.24.52-.35,1.09-.35,1.7,0,.95.29,1.74.89,2.37.59.64,1.29,1.12,2.09,1.45.8.33,1.46.52,1.98.57.8.05,1.48-.08,2.02-.39.36-.2,1.03-.67,2.02-1.4v-5.63c-.98.45-1.76.68-2.34.68Z"/>
    <path d="M266.35,197.39c3-5.1,4.67-11.29,5-18.57.09-2.08.42-4.25.99-6.52.28-.85.42-1.54.42-2.06,0-.66-.33-1.35-.99-2.05-.8-.85-1.91-1.52-3.33-2.02-1.42-.5-2.74-.74-3.97-.74-.57,0-1.03.07-1.38.21-.35.14-.53.33-.53.57,0,.42.45.92,1.35,1.49.94.61,1.63,1.68,2.05,3.19.42,1.51.64,3.73.64,6.66,0,7.61-1.19,13.83-3.58,18.67-2.39,4.84-6.11,8.87-11.16,12.08-1.7,1.13-2.55,1.94-2.55,2.41,0,.24.21.35.64.35.8,0,1.94-.4,3.4-1.21,5.67-3.21,10-7.37,13-12.47Z"/>
    <path d="M285.24,268.18l-19.06,3.12c-.71.1-1.25.05-1.63-.14-.38-.19-.57-.5-.57-.92,0-.47.21-.99.64-1.56,2.79-3.78,5.48-8.22,8.08-13.32,1.65-3.35,3.78-8.01,6.38-13.96,1.84-4.39,3.02-6.87,3.54-7.44.38-.38.57-.85.57-1.42,0-1.13-.73-2.4-2.2-3.79-1.46-1.39-2.98-2.42-4.54-3.08-.61-.24-1.09-.35-1.42-.35-.66,0-.99.28-.99.85,0,.28.11.6.32.96s.53.67.96.96c.52.38.78,1.25.78,2.62,0,2.55-.85,6.27-2.55,11.16-1.7,4.89-3.93,10.02-6.7,15.38-2.76,5.36-5.66,9.98-8.68,13.85-.38.52-.79.9-1.24,1.13-.45.24-1,.4-1.67.5-1.04.09-1.75.14-2.13.14-.8,0-1.2.33-1.2.99s.38,1.45,1.13,2.37c.75.92,1.68,1.72,2.76,2.41,1.09.69,2.15,1.03,3.19,1.03.66,0,1.3-.19,1.91-.57,4.18-2.83,13.28-5.56,27.28-8.21v-3.24c-1.13.2-2.13.38-2.97.53Z"/>
    <path d="M287.72,254.36c0,.24.18.57.49.95v-1.36c-.32.03-.49.16-.49.41Z"/>
    <path d="M268.3,325.16c-.38,0-.8.5-1.28,1.49-.99,2.17-1.83,4.26-2.52,6.27-.69,2.01-1.24,4.29-1.67,6.84-.14.71-.33,1.06-.57,1.06-.33,0-.68-.45-1.06-1.35-.38-.9-.71-2.13-.99-3.68-.28-1.56-.42-3.33-.42-5.32,0-6.42,1.46-12.85,4.39-19.28.33-.71.5-1.51.5-2.41,0-1.75-.63-3.51-1.88-5.28-1.25-1.77-2.49-2.99-3.72-3.65-.14-.09-.35-.14-.64-.14-.57,0-.85.21-.85.64,0,.19.12.45.35.78,1.42,1.7,2.13,3.54,2.13,5.53,0,.38-.1,1.09-.28,2.13-1.23,5.29-2.16,9.89-2.8,13.78s-.96,7.55-.96,10.95c0,6.71,1.44,12.38,4.32,17.01.28.42.71.79,1.28,1.1.57.31,1.13.46,1.7.46.61,0,1.12-.21,1.52-.64s.6-1.06.6-1.91c0-.19-.05-.61-.14-1.28-.19-.99-.28-2.17-.28-3.54,0-2.93.37-5.82,1.1-8.68.73-2.86,1.55-5.63,2.45-8.33.19-.52.28-1.02.28-1.49,0-.71-.19-1.06-.57-1.06Z"/>
    <path d="M305.58,343.72c-.85-.66-1.84-.99-2.98-.99-.19,0-.52.05-.99.14-3.02.71-5.98,1.06-8.86,1.06-3.02,0-5.54-.42-7.55-1.28-2.01-.85-3.48-1.97-4.43-3.37s-1.42-2.87-1.42-4.43c0-.99.19-1.98.57-2.98.14-.38.35-.9.64-1.56.28-.66.42-1.11.42-1.35,0-.38-.24-.57-.71-.57-.38-.05-.86.46-1.45,1.52-.59,1.06-.96,1.9-1.1,2.52-.33,1.46-.5,2.83-.5,4.11,0,3.64,1.42,6.63,4.25,8.96,2.83,2.34,7.77,3.39,14.81,3.15,4.01-.14,7.04-.54,9.07-1.21.99-.33,1.49-.87,1.49-1.63s-.42-1.46-1.28-2.13Z"/>
    <path d="M292.82,313.32c-.8.57-1.85,1.37-3.15,2.41-1.3,1.04-2.26,1.91-2.87,2.62-.47.62-.71,1.11-.71,1.49s.17.57.5.57c.42,0,.87-.28,1.35-.85,1.23-1.32,2.61-2.4,4.15-3.22,1.53-.83,3.46-1.69,5.78-2.59,2.03-.8,3.46-1.46,4.29-1.98.83-.52,1.24-1.16,1.24-1.91,0-.52-.41-1.06-1.24-1.63-.83-.57-1.9-.78-3.22-.64-4.58.47-7.96.71-10.13.71-1.8,0-3.43-.12-4.89-.35-.8-.14-1.51-.34-2.13-.6-.61-.26-.99-.41-1.13-.46-.61-.38-1.11-.57-1.49-.57-.24,0-.46.06-.67.18-.21.12-.32.3-.32.53,0,.19.09.4.28.64.52.66,1.41,1.36,2.66,2.09,1.25.73,2.59,1.24,4,1.52l3.05.42c1.7.19,2.96.37,3.79.53.83.17,1.24.39,1.24.67,0,.14-.12.28-.35.42Z"/>
    <path d="M179.11,177.49c-2.1-1.94-4.78-3.07-8.04-3.4-.52-.05-.93.01-1.24.18-.31.17-.46.39-.46.67,0,.24.09.44.28.6.19.17.43.27.71.32,2.88.38,4.97,1.76,6.27,4.15,1.3,2.39,1.95,5.28,1.95,8.68,0,1.61-.17,3.36-.5,5.24-.19.95,0,1.73.6,2.34.59.61,1.36.92,2.3.92,1.09,0,2.04-.46,2.87-1.38.83-.92,1.24-2.26,1.24-4,0-2.36-.47-4.85-1.42-7.48s-2.47-4.9-4.57-6.84Z"/>
    <path d="M129.54,186.49c0,4.87.7,8.89,2.09,12.08,1.39,3.19,3.3,5.82,5.7,7.9,1.51,1.28,3.16,2.27,4.96,2.98,1.8.71,3.33,1.06,4.61,1.06.43,0,1-.14,1.74-.43.73-.28,1.38-.68,1.95-1.2.57-.52.85-1.13.85-1.84,0-.61-.24-1.25-.71-1.91-.71-.94-1.06-2.24-1.06-3.9,0-2.13.58-4.57,1.74-7.33s2.56-5.47,4.22-8.11c.19-.33.28-.66.28-.99,0-.61-.26-.92-.78-.92-.47,0-.97.28-1.49.85-1.37,1.65-2.65,3.6-3.83,5.85-1.18,2.25-2.55,5.26-4.11,9.04-.33.8-.81,1.43-1.45,1.88-.64.45-1.36.67-2.16.67-1.51,0-3-.78-4.46-2.34-1.46-1.56-2.6-3.83-3.4-6.8-.43-1.56-.64-3.42-.64-5.6,0-2.69.31-5.48.92-8.36.61-2.88,1.39-5.24,2.34-7.09.43-.75.64-1.49.64-2.2,0-1.46-.8-3.07-2.41-4.82-.33-.38-1.03-.86-2.09-1.45s-1.76-.93-2.09-1.03c-.24-.05-.45-.01-.64.11-.19.12-.28.3-.28.53,0,.28.21.64.64,1.06.43.28.82.67,1.17,1.17.35.5.53,1.05.53,1.67,0,.33-.02.57-.07.71-1.8,7.32-2.69,13.58-2.69,18.78Z"/>
    <path d="M170.72,276.4c.28,0,.64.14,1.06.43,1.42,1.23,2.38,2.13,2.9,2.69.99.99,1.89,1.49,2.69,1.49.57,0,1.03-.24,1.38-.71.36-.47.53-1.06.53-1.77,0-1.56-.84-2.98-2.52-4.25-1.68-1.28-3.63-2.31-5.85-3.12-.9-.33-1.42-.97-1.56-1.91-.28-1.84-.54-3.8-.78-5.88-.24-2.08-.36-3.92-.36-5.53,0-3.4.54-5.83,1.63-7.3,1.09-1.46,2.48-2.2,4.18-2.2.57,0,1.12.12,1.66.35.54.24,1.15.59,1.81,1.06.09.09.42.31.99.64.57.33,1.09.5,1.56.5.61,0,1.14-.24,1.59-.71.45-.47.67-1.09.67-1.84,0-1.13-.53-2.3-1.6-3.51-1.06-1.21-2.44-2.21-4.14-3.01-1.7-.8-3.45-1.2-5.24-1.2-.57,0-1.24.11-2.02.32-.78.21-1.17.46-1.17.74,0,.24.36.35,1.06.35.43,0,.71-.02.85-.07,1.23-.14,2.29.12,3.19.78.9.66,1.35,1.42,1.35,2.27,0,.9-.5,1.54-1.49,1.91-5.48,2.36-8.22,7.39-8.22,15.09,0,1.51.12,3.28.35,5.32.14,1.13-.35,1.7-1.49,1.7l-1.98-.07c-3.31,0-6.13.73-8.47,2.2-2.34,1.46-3.37,3.59-3.08,6.38.1,1.23.66,2.36,1.7,3.4,1.04,1.04,2.35,1.87,3.93,2.48,1.58.61,3.18.92,4.78.92,1.7,0,3.24-.35,4.61-1.06,1.37-.71,2.46-1.8,3.26-3.26.42-.9.73-1.65.92-2.27.24-.9.66-1.35,1.28-1.35ZM165.68,274.7c-.28,1.7-1.03,3.1-2.23,4.18-1.21,1.09-2.66,1.63-4.36,1.63-1.46,0-2.84-.4-4.11-1.21-1.28-.8-1.96-1.65-2.05-2.55-.14-1.61.41-2.86,1.67-3.76,1.25-.9,2.87-1.35,4.85-1.35,1.7,0,3.38.31,5.03.92.85.38,1.28.95,1.28,1.7l-.07.42Z"/>
    <path d="M150.94,232.75c0-.28.02-.5.07-.64.19-1.23.28-2.06.28-2.48,0-.71-.3-1.44-.89-2.2-.59-.75-1.35-1.39-2.27-1.91-.92-.52-1.9-.78-2.94-.78-.8,0-1.45.17-1.95.5-.5.33-.74.8-.74,1.42,0,.33.07.54.21.64.14.1.38.14.71.14,1.13,0,1.96.72,2.48,2.16s.78,3.32.78,5.63c0,1.94-.17,4.02-.5,6.24-.24,1.46-1.06,2.24-2.48,2.34-2.31,0-4.18-.24-5.6-.71-1.09-.33-2-.8-2.73-1.42-.73-.61-1.43-1.35-2.09-2.2-.57-.71-.97-1.06-1.21-1.06-.28,0-.43.21-.43.64,0,.66.21,1.56.64,2.69.42,1.13,1.05,2.22,1.88,3.26.83,1.04,1.85,1.77,3.08,2.2.66.28,1.63.42,2.91.42.75,0,1.3-.02,1.63-.07.75-.05,1.35.07,1.77.35.42.28.64.73.64,1.35,0,.38-.05.69-.14.92-1.04,3.59-2.52,7.18-4.43,10.77-1.91,3.59-4.12,6.57-6.63,8.93-1.23,1.18-1.84,2.36-1.84,3.54,0,.76.24,1.37.71,1.84.47.47,1.06.71,1.77.71,1.13,0,2.22-.59,3.26-1.77,2.46-2.6,4.65-6.27,6.59-11.02,1.94-4.75,3.47-9.58,4.61-14.49.28-1.32,1.09-2.13,2.41-2.41,3.12-.75,6.07-1.7,8.86-2.83,2.79-1.13,4.18-2.13,4.18-2.98,0-.52-.38-.99-1.13-1.42-.76-.42-1.65-.64-2.69-.64-1.13,0-2.27-.31-3.4-.92-1.13-.61-2.53-1.51-4.18-2.69-.8-.57-1.21-1.25-1.21-2.05ZM154.77,238.06c.38.33.57.71.57,1.13,0,.57-.31,1.02-.92,1.35-.85.52-1.42.83-1.7.92-.42.19-.85.28-1.28.28-1.04,0-1.56-.59-1.56-1.77,0-.28.02-.5.07-.64l.28-1.42c.1-.61.27-1.09.53-1.42.26-.33.58-.5.96-.5s.8.19,1.28.57l1.77,1.49Z"/>
    <path d="M179.11,319.22c-2.1-1.94-4.78-3.07-8.04-3.4-.52-.05-.93.01-1.24.18-.31.17-.46.39-.46.67,0,.24.09.44.28.6.19.17.43.27.71.32,2.88.38,4.97,1.76,6.27,4.15,1.3,2.39,1.95,5.28,1.95,8.68,0,1.61-.17,3.36-.5,5.24-.19.95,0,1.73.6,2.34.59.61,1.36.92,2.3.92,1.09,0,2.04-.46,2.87-1.38.83-.92,1.24-2.26,1.24-4,0-2.36-.47-4.85-1.42-7.48s-2.47-4.9-4.57-6.84Z"/>
    <path d="M155.13,325.6c-.47,0-.97.28-1.49.85-1.37,1.65-2.65,3.6-3.83,5.85-1.18,2.25-2.55,5.26-4.11,9.04-.33.8-.81,1.43-1.45,1.88-.64.45-1.36.67-2.16.67-1.51,0-3-.78-4.46-2.34-1.46-1.56-2.6-3.83-3.4-6.8-.43-1.56-.64-3.42-.64-5.6,0-2.69.31-5.48.92-8.36.61-2.88,1.39-5.24,2.34-7.09.43-.75.64-1.49.64-2.2,0-1.46-.8-3.07-2.41-4.82-.33-.38-1.03-.86-2.09-1.45s-1.76-.93-2.09-1.03c-.24-.05-.45-.01-.64.11-.19.12-.28.3-.28.53,0,.28.21.64.64,1.06.43.28.82.67,1.17,1.17.35.5.53,1.05.53,1.67,0,.33-.02.57-.07.71-1.8,7.32-2.69,13.58-2.69,18.78,0,4.87.7,8.89,2.09,12.08,1.39,3.19,3.3,5.82,5.7,7.9,1.51,1.28,3.16,2.27,4.96,2.98,1.8.71,3.33,1.06,4.61,1.06.43,0,1-.14,1.74-.43.73-.28,1.38-.68,1.95-1.2.57-.52.85-1.13.85-1.84,0-.61-.24-1.25-.71-1.91-.71-.94-1.06-2.24-1.06-3.9,0-2.13.58-4.57,1.74-7.33s2.56-5.47,4.22-8.11c.19-.33.28-.66.28-.99,0-.61-.26-.92-.78-.92Z"/>
    <path d="M60.31,90.67c-1.04,0-2.08.52-3.12,1.56-.8.8-1.43,1.35-1.88,1.63-.45.28-1.26.47-2.44.57-.61.05-1.09-.08-1.42-.39-.33-.31-.5-.74-.5-1.31v-4.82c0-.66.11-1.14.32-1.45.21-.31.53-.65.96-1.03.33-.28.57-.51.71-.67.14-.17.19-.41.14-.74-.05-.38-.35-.86-.92-1.45-.57-.59-1.26-1.09-2.09-1.49-.83-.4-1.62-.58-2.37-.53-.47,0-1.06.35-1.77,1.06-.43.38-.81.67-1.17.89-.35.21-.74.34-1.17.39h-24.94c-1.61,0-3.9-.09-6.87-.28l-1.7-.14c-.47-.05-.84.07-1.1.35-.26.28-.39.64-.39,1.06,0,.38.13.72.39,1.03.26.31.63.44,1.1.39l1.7-.14c2.69-.19,4.98-.28,6.87-.28h8.01c1.13,0,1.7.54,1.7,1.63,0,1.18-.07,2.44-.21,3.79-.14,1.35-.24,2.21-.28,2.59-.14,1.09-.76,1.63-1.84,1.63h-15.94c-1.61,0-3.9-.09-6.87-.28l-1.7-.14c-.47-.05-.84.07-1.1.35-.26.28-.39.64-.39,1.06,0,.38.13.72.39,1.03.26.31.63.44,1.1.39l1.7-.14c2.69-.19,4.98-.28,6.87-.28h15.24c.61,0,1.06.17,1.35.5.28.33.38.8.28,1.42-.47,2.17-1.04,4.32-1.7,6.45-.33.95-.99,1.42-1.98,1.42h-4.61c-1.61,0-3.9-.09-6.87-.28l-1.7-.14c-.47-.05-.84.07-1.1.35-.26.28-.39.64-.39,1.06,0,.38.13.72.39,1.03.26.31.63.44,1.1.39l1.7-.14c2.69-.19,4.98-.28,6.87-.28h3.05c.47,0,.85.11,1.13.32.28.21.43.51.43.89,0,.24-.07.54-.21.92-2.6,5.86-5.85,10.76-9.74,14.71-3.9,3.95-7.74,6.74-11.52,8.4-.71.33-1.06.71-1.06,1.13,0,.24.09.44.28.6.19.17.45.25.78.25.14,0,.4-.05.78-.14,2.55-.99,5.11-2.33,7.69-4,2.57-1.68,5-3.7,7.26-6.06.43-.47.85-.71,1.28-.71.24,0,.45.14.64.42.19.28.28.64.28,1.06l-.07,10.21c0,.9-.02,1.58-.07,2.06l-.07,2.91c0,.52.15.92.46,1.2.31.28.7.43,1.17.43.76,0,1.46-.27,2.13-.82.66-.54.99-1.24.99-2.09,0-.66.21-1.17.64-1.52.43-.35,1.04-.53,1.84-.53h19.42c.8,0,1.42.25,1.84.74.42.5.64,1.17.64,2.02,0,.66.09,1.19.28,1.59.19.4.61.6,1.28.6.8,0,1.53-.26,2.2-.78.66-.52.99-1.23.99-2.13v-15.17c0-.66.11-1.16.32-1.49.21-.33.51-.64.89-.92.28-.24.5-.44.64-.6.14-.17.21-.41.21-.74,0-.38-.27-.87-.81-1.49-.54-.61-1.21-1.16-1.98-1.63-.78-.47-1.55-.71-2.3-.71-.33,0-.66.11-.99.32-.33.21-.64.44-.92.67-.33.28-.7.53-1.1.74-.4.21-.81.32-1.24.32h-20.34c-.28,0-.69-.19-1.21-.57-.38-.28-.57-.61-.57-.99s.14-.78.43-1.21c1.32-2.22,2.48-4.51,3.47-6.87.42-.9,1.11-1.35,2.06-1.35h14.74c1.18,0,1.77.59,1.77,1.77v.35c-.05.57.08,1,.39,1.31.31.31.7.46,1.17.46.71,0,1.38-.27,2.02-.81.64-.54.96-1.24.96-2.09v-10.91c0-1.18.59-1.77,1.77-1.77l9.78-.07c.8,0,1.42-.17,1.84-.5.42-.33.64-.76.64-1.28,0-.57-.26-1.16-.78-1.77-1.32-1.51-2.62-2.27-3.9-2.27ZM24.24,123.62c0-.8.22-1.42.67-1.84.45-.42,1.05-.64,1.81-.64h19.63c.8,0,1.42.21,1.84.64.43.43.64,1.04.64,1.84v9.85c0,.76-.21,1.36-.64,1.81-.43.45-1.04.67-1.84.67l-19.63-.07c-.76,0-1.36-.22-1.81-.67-.45-.45-.67-1.05-.67-1.81v-9.78ZM46.42,104.49c0,1.18-.59,1.77-1.77,1.77h-13.32c-1.04,0-1.56-.45-1.56-1.35,0-.28.02-.5.07-.64.61-1.89,1.13-3.92,1.56-6.09.28-1.09.94-1.63,1.98-1.63h11.27c1.18,0,1.77.59,1.77,1.77v6.17ZM46.42,92.72c0,1.18-.59,1.77-1.77,1.77h-10.63c-.61,0-1.08-.17-1.38-.5-.31-.33-.41-.78-.32-1.35.24-1.7.4-3.69.5-5.95.09-1.23.71-1.84,1.84-1.84h9.28c.8,0,1.42.21,1.84.64.42.43.64,1.04.64,1.84v5.39Z"/>
    <path d="M47.13,163.87c-.66,0-.99.21-.99.64s.35.83,1.06,1.2c1.56.8,2.75,1.57,3.58,2.3.83.73,1.71,1.67,2.66,2.8.05.05.45.52,1.2,1.42.66.71,1.44,1.06,2.34,1.06.61,0,1.12-.17,1.52-.5.4-.33.6-.78.6-1.35,0-1.09-.85-2.29-2.55-3.61-1.7-1.32-4.42-2.57-8.15-3.76-.47-.14-.9-.21-1.28-.21Z"/>
    <path d="M55.67,162.27c.83.64,1.67,1.43,2.52,2.37.71.8,1.28,1.37,1.7,1.7.57.52,1.25.78,2.06.78.57,0,1.05-.17,1.45-.5.4-.33.6-.76.6-1.28,0-1.04-.84-2.16-2.52-3.37-1.68-1.21-4.36-2.28-8.04-3.22-.28-.09-.66-.14-1.13-.14-.38,0-.67.06-.89.18-.21.12-.32.27-.32.46,0,.47.4.88,1.2,1.2,1.42.57,2.54,1.17,3.37,1.81Z"/>
    <path d="M42.73,173.57c-.38,0-.67.07-.89.21-.21.14-.32.33-.32.57s.12.47.35.71c.24.24.59.45,1.06.64,2.65.99,4.83,2.28,6.56,3.86,1.72,1.58,3,3.22,3.83,4.93.83,1.7,1.24,3.24,1.24,4.61,0,.28-.05.66-.14,1.13-.33,1.23-.95,2.1-1.84,2.62-.9.52-2.41.92-4.54,1.2-.8.14-1.2.52-1.2,1.13,0,.28.12.52.35.71.24.19.57.28.99.28l.5-.07c.43-.09,1.09-.14,1.98-.14.66,0,1.56.05,2.69.14,1.04.09,1.82.14,2.34.14,1.23,0,2.27-.25,3.12-.74.85-.5,1.51-1.43,1.98-2.8.19-.52.28-1.11.28-1.77,0-1.94-.79-4.11-2.37-6.52-1.58-2.41-3.72-4.62-6.41-6.63-2.69-2.01-5.62-3.39-8.79-4.15-.19-.05-.45-.07-.78-.07Z"/>
    <path d="M11.27,195.26c-2.6,3.73-5.48,7.11-8.65,10.13-.71.76-1.06,1.58-1.06,2.48,0,.76.22,1.39.67,1.91.45.52.98.78,1.59.78.71,0,1.35-.38,1.91-1.13,2.98-3.78,5.76-7.82,8.36-12.12,2.6-4.3,4.7-9.35,6.31-15.17.42-1.65.89-2.88,1.38-3.69.5-.8,1.1-1.23,1.81-1.28.42-.05,1.02-.07,1.77-.07,2.41,0,4.2.52,5.39,1.56,1.09.85,1.9,2.09,2.44,3.72.54,1.63.81,3.46.81,5.49,0,2.6-.38,5.21-1.13,7.83-.76,2.62-1.78,4.78-3.08,6.48-1.3,1.7-2.68,2.55-4.15,2.55-.99,0-2.05-.34-3.19-1.03-1.13-.68-2.17-1.57-3.12-2.66-.57-.61-1.09-.92-1.56-.92-.19,0-.34.06-.46.18-.12.12-.18.27-.18.46,0,.42.19.83.57,1.21,1.56,1.75,2.66,3.06,3.3,3.93.64.88.96,1.71.96,2.52,0,1.65.78,2.48,2.34,2.48,1.28,0,2.91-.59,4.89-1.77,2.65-1.56,4.77-4.28,6.38-8.15,1.61-3.87,2.41-7.87,2.41-11.98,0-2.93-.46-5.55-1.38-7.87-.92-2.31-2.28-4.01-4.08-5.1-1.7-.99-3.9-1.49-6.59-1.49-.8,0-1.44.02-1.91.07-.66.05-1.15-.08-1.45-.39-.31-.31-.39-.77-.25-1.38.19-1.04.57-2.5,1.13-4.39.05-.24.26-1.06.64-2.48.38-1.42.66-2.93.85-4.54.14-1.32-.26-2.55-1.2-3.68-.95-1.13-2.36-1.98-4.25-2.55-.47-.14-.92-.21-1.35-.21-.47,0-.86.08-1.17.25-.31.17-.46.37-.46.6,0,.42.45.73,1.35.92.71.14,1.22.66,1.52,1.56.31.9.46,1.84.46,2.83,0,2.22-.1,4.24-.28,6.06-.19,1.82-.5,4.03-.92,6.63-.19,1.42-.97,2.29-2.34,2.62-2.83.71-5.08,1.06-6.73,1.06-1.46,0-2.53-.28-3.19-.85-.52-.47-.99-.71-1.42-.71-.38,0-.57.21-.57.64,0,.19.12.52.35.99.8,1.32,1.78,2.35,2.94,3.08,1.16.73,2.28,1.1,3.37,1.1.61,0,1.25-.17,1.91-.5.85-.57,1.68-1.04,2.48-1.42.33-.14.61-.21.85-.21.33,0,.59.11.78.32.19.21.28.48.28.81,0,.28-.02.52-.07.71-1.42,5.43-3.43,10.02-6.02,13.75Z"/>
    <path d="M61.3,246.28c-.61-.38-1.23-.57-1.84-.57-1.09,0-2.15.52-3.19,1.56-.71.71-1.38,1.26-2.02,1.67-.64.4-1.43.6-2.37.6h-14.88c-.76,0-1.36-.22-1.81-.67-.45-.45-.67-1.05-.67-1.81v-8.29c0-.8.22-1.42.67-1.84.45-.43,1.05-.64,1.81-.64l13.04-.07c.8,0,1.42-.17,1.84-.5.43-.33.64-.75.64-1.28,0-.57-.26-1.16-.78-1.77-.61-.66-1.28-1.23-1.98-1.7-.61-.38-1.23-.57-1.84-.57-1.09,0-2.15.52-3.19,1.56-.71.71-1.38,1.26-2.02,1.67-.64.4-1.43.6-2.37.6h-3.33c-.76,0-1.36-.22-1.81-.67-.45-.45-.67-1.05-.67-1.81v-7.51c0-.33.08-.64.25-.92.17-.28.39-.45.67-.5.76-.05,1.13-.26,1.13-.64,0-.33-.28-.66-.85-.99-.57-.33-1.28-.5-2.13-.5-1.04,0-1.9.3-2.59.89-.69.59-1.03,1.48-1.03,2.66v7.51c0,.76-.21,1.36-.64,1.81-.42.45-1.04.67-1.84.67h-4.61c-1.42,0-2.13-.57-2.13-1.7,0-.33.07-.71.21-1.13.19-.52.42-1.3.71-2.34.24-.75.57-1.13.99-1.13l.28.07c.33.1.58.11.74.04.17-.07.25-.22.25-.46,0-.28-.1-.59-.28-.92-.24-.47-.64-.86-1.21-1.17-.57-.31-1.16-.46-1.77-.46-.76,0-1.44.26-2.06.78-.61.52-1.06,1.32-1.35,2.41-.95,4.11-2.09,7.5-3.44,10.17-1.35,2.67-3.41,5.19-6.2,7.55-.42.33-.64.69-.64,1.06s.24.57.71.57c.38,0,.8-.17,1.28-.5,3.54-2.22,6.5-5.27,8.86-9.14.71-1.13,1.7-1.7,2.98-1.7l6.66.07c.8,0,1.42.21,1.84.64.43.42.64,1.04.64,1.84v8.29c0,.76-.21,1.36-.64,1.81-.42.45-1.04.67-1.84.67h-15.94c-1.61,0-3.9-.09-6.87-.28l-1.7-.14c-.47-.05-.84.07-1.1.35-.26.28-.39.64-.39,1.06,0,.38.13.72.39,1.03.26.31.63.44,1.1.39l1.7-.14c2.69-.19,4.98-.28,6.87-.28h50.03c.8,0,1.42-.17,1.84-.5.43-.33.64-.76.64-1.28,0-.57-.26-1.16-.78-1.77-.61-.66-1.28-1.23-1.98-1.7Z"/>
    <path d="M18.07,284.59c.66-.54.99-1.24.99-2.09,0-.66.21-1.17.64-1.52s1.04-.53,1.84-.53h20.98c.8,0,1.42.25,1.84.74s.64,1.17.64,2.02c0,.66.09,1.19.28,1.59.19.4.61.6,1.28.6.8,0,1.53-.26,2.2-.78.66-.52.99-1.23.99-2.13v-19.06c0-.66.11-1.16.32-1.49.21-.33.51-.64.89-.92.28-.24.5-.44.64-.6.14-.17.21-.41.21-.74,0-.38-.27-.87-.81-1.49-.54-.61-1.2-1.16-1.98-1.63-.78-.47-1.55-.71-2.3-.71-.33,0-.66.11-.99.32-.33.21-.64.44-.92.67-.33.28-.7.53-1.1.74-.4.21-.81.32-1.24.32h-21.9c-.24,0-.64-.19-1.2-.57-.57-.38-1.12-.68-1.67-.92-.54-.24-1.24-.35-2.09-.35-.71,0-1.06.26-1.06.78v26.93c0,1.09.47,1.63,1.42,1.63.76,0,1.46-.27,2.13-.82ZM19.06,262.3c0-.8.22-1.42.67-1.84.45-.42,1.05-.64,1.81-.64h21.19c.8,0,1.42.21,1.84.64s.64,1.04.64,1.84v13.75c0,.76-.21,1.36-.64,1.81-.43.45-1.04.67-1.84.67l-21.19-.07c-.76,0-1.36-.22-1.81-.67-.45-.45-.67-1.05-.67-1.81v-13.68Z"/>
    <path d="M38.55,312.33c-.52-.28-1.04-.42-1.56-.42-.57,0-.85.19-.85.57s.31.8.92,1.28c1.46.99,2.56,1.93,3.3,2.8.73.88,1.45,1.9,2.16,3.08l1.06,1.63c.66.95,1.51,1.42,2.55,1.42.57,0,1.04-.17,1.42-.5.38-.33.57-.78.57-1.35,0-1.09-.76-2.37-2.27-3.86-1.51-1.49-3.95-3.04-7.3-4.64Z"/>
    <path d="M51.56,311.87c-1.49-1.35-3.91-2.7-7.26-4.07-.61-.24-1.11-.35-1.49-.35-.28,0-.51.06-.67.18-.17.12-.25.27-.25.46,0,.47.33.88.99,1.21,1.37.76,2.41,1.51,3.12,2.27.71.76,1.44,1.68,2.2,2.76.52.85.99,1.49,1.42,1.91.66.71,1.39,1.06,2.2,1.06.57,0,1.04-.17,1.42-.5.38-.33.57-.78.57-1.35,0-1.04-.74-2.23-2.23-3.58Z"/>
    <path d="M32.39,341.88c-1.46-1.79-3.64-4.28-6.52-7.44-.52-.57-1.16-1.25-1.91-2.05-.76-.8-1.61-1.75-2.55-2.83l-1.06-1.06c-.95-.94-1.62-1.69-2.02-2.23-.4-.54-.56-1.07-.46-1.59.61-2.55,3.97-6.31,10.06-11.27,1.51-1.23,3.24-2.53,5.17-3.9,2.13-1.61,3.57-2.82,4.32-3.65.75-.83,1.13-1.81,1.13-2.94,0-.76-.14-1.58-.43-2.48-.33-.99-.83-1.98-1.49-2.98-.66-.99-1.28-1.49-1.84-1.49-.76,0-1.13.57-1.13,1.7l.07.64c.09.57.14,1.02.14,1.35,0,1.37-.51,2.72-1.52,4.04-1.02,1.32-3.06,3.43-6.13,6.31-3.59,3.31-6.54,6.26-8.86,8.86-2.32,2.6-3.47,4.8-3.47,6.59,0,.61.17,1.11.5,1.49.47.66,1.12,1.51,1.95,2.55.83,1.04,1.48,1.87,1.95,2.48,3.21,3.97,5.95,7.58,8.22,10.84s4.16,6.73,5.67,10.42c.52,1.28,1.2,1.91,2.06,1.91.71,0,1.35-.44,1.91-1.31.57-.88.85-1.88.85-3.01,0-.99-.24-1.96-.71-2.91-1.13-2.22-2.43-4.23-3.9-6.02Z"/>
    <path d="M288.21,0v22.59c1.09-.14,2.14-.29,3.16-.46,4.09-.66,6.48-1.37,7.19-2.13.38-.38.9-.57,1.56-.57.8,0,1.7.26,2.69.78.99.52,1.84,1.13,2.55,1.84.71.71,1.06,1.35,1.06,1.91,0,.38-.28.69-.85.92-.38.14-.72.6-1.03,1.38-.31.78-.74,2.07-1.31,3.86-1.75,5.39-3.79,10.31-6.13,14.78-1.94,3.71-4.92,7.31-8.9,10.8v55.32c2.11-2.05,4.06-4.18,5.81-6.42,1.65-2.03,3.32-4.69,5-7.97,1.68-3.28,2.52-5.7,2.52-7.26,0-.75-.24-1.23-.71-1.42-.52-.19-.78-.42-.78-.71,0-.24.17-.44.5-.6.33-.17.75-.25,1.28-.25,1.42,0,2.66.42,3.72,1.28,1.06.85,1.59,1.82,1.59,2.91,0,.33-.07.69-.21,1.06-.9,2.22-2.1,4.54-3.61,6.95-1.51,2.41-3.12,4.63-4.82,6.66-.33.33-.5.69-.5,1.06,0,.52.4,1.13,1.21,1.84.85.61,1.28,1.32,1.28,2.13,0,.28-.02.5-.07.64-.57,1.56-.85,4.49-.85,8.79s.28,7.87.85,10.42c.05.19.07.47.07.85,0,1.28-.44,2.42-1.31,3.44-.88,1.02-1.74,1.52-2.59,1.52-.47,0-.84-.22-1.1-.67-.26-.45-.34-1.12-.25-2.02l.21-2.55c.47-6.61.71-11.31.71-14.1,0-1.23-.09-2.79-.28-4.68-.05-.52-.19-.91-.42-1.17-.24-.26-.54-.39-.92-.39-.47,0-.97.21-1.49.64-1.69,1.53-3.3,2.88-4.82,4.06v78.46c1.05-.48,2.32-1.21,3.83-2.19,2.93-1.91,5.99-4.37,9.18-7.37,3.19-3,5.8-6.06,7.83-9.18.75-1.04,1.35-1.56,1.77-1.56.28,0,.37.3.25.89-.12.59-.49,1.41-1.1,2.45-.61,1.13-1.8,2.83-3.54,5.1-1.75,2.27-3.83,4.69-6.24,7.26s-4.89,4.83-7.44,6.77l-2.76,2.13c-.68.52-1.26.96-1.77,1.33v54.81s.09-.01.14-.01c.71,0,1.54.31,2.48.92,2.98,1.94,6.11,4.71,9.39,8.33,3.28,3.61,5.49,7.22,6.63,10.81.14.57.21,1.09.21,1.56,0,.99-.31,1.8-.92,2.41s-1.32.92-2.13.92c-.57,0-1.1-.19-1.59-.57-.5-.38-.84-.94-1.03-1.7-.47-1.75-1.16-3.61-2.05-5.6-.42-.99-1.35-1.49-2.76-1.49-.28,0-.8.05-1.56.14-2.39.4-4.65.81-6.81,1.22v24.9h41.93V0h-41.93Z"/>
    <path d="M295.72,264.99c0-.38-.19-.87-.57-1.49-1.84-2.69-3.95-5.2-6.31-7.51-.27-.25-.47-.47-.64-.68v12.33c1.59-.28,3.45-.6,5.6-.95,1.28-.24,1.91-.8,1.91-1.7Z"/>
    <path d="M297.99,29.29c0-2.74-1.44-4.11-4.32-4.11-1.62,0-3.45.04-5.46.12v24.8c3.19-3.89,5.82-8.34,7.87-13.37,1.28-3.12,1.91-5.6,1.91-7.44Z"/>
  </g>
</svg>