<svg width="121" height="120" viewBox="0 0 121 120" fill="none" xmlns="http://www.w3.org/2000/svg">
<path d="M74.2275 47.5474C75.5695 46.6767 76.8423 45.8442 78.1222 45.0229C81.3706 42.9359 84.1223 40.4608 86.5127 37.695C88.278 35.6531 89.8938 33.5576 91.3049 31.3901C93.0039 28.7809 94.0199 26.1534 94.3783 23.5034C94.4291 23.1294 94.5166 22.7442 94.6436 22.3632C94.6831 22.2446 94.9089 22.0541 95.0458 22.0231C95.1967 21.9878 95.3971 22.0584 95.4804 22.1529C95.5679 22.2517 95.5453 22.4295 95.5665 22.5748C96.0773 26.1661 95.0119 29.8633 92.6596 33.6507C91.0735 36.2048 89.3815 38.7208 87.214 41.0845C84.897 43.6132 82.0705 45.5718 78.8955 47.124C77.459 47.8268 76.0422 48.0709 74.7299 47.7661C74.5479 47.7238 74.4011 47.625 74.2275 47.5474Z" fill="white"/>
<path d="M86.8045 46.7248C86.7523 47.1594 86.7833 47.6321 86.6309 48.0216C86.3163 48.8302 86.0129 49.6909 85.5133 50.364C82.7109 54.143 79.3482 57.1783 75.1317 58.9916C73.279 59.7889 71.3302 59.9427 69.3546 59.7804C68.3923 59.7014 67.6683 59.1525 67.0686 58.3891C66.8697 58.1351 66.6481 57.8345 66.9755 57.5099C67.2422 57.2461 67.5653 57.3843 67.6966 57.6144C68.1326 58.3778 68.8071 58.2649 69.4619 58.2832C72.071 58.3594 74.501 57.6412 76.794 56.3486C79.4117 54.874 81.7767 53.0085 83.9202 50.8283C85.0618 49.6684 86.0143 48.3405 86.4898 46.6711C86.5957 46.6881 86.7001 46.7064 86.8059 46.7234L86.8045 46.7248Z" fill="white"/>
<path d="M81.2511 80.6565C81.6335 80.3334 81.9764 80.03 82.3334 79.7449C83.0475 79.1762 83.7911 78.6513 84.618 78.2562C84.7493 78.1941 84.8876 78.1391 85.0287 78.1024C85.3151 78.029 85.5268 78.1941 85.5212 78.489C85.5155 78.8192 85.4817 79.1508 85.4802 79.481C85.4802 79.6504 85.5085 79.8239 85.5494 79.9905C85.627 80.3023 85.7596 80.3461 85.9995 80.1245C86.1802 79.9566 86.3509 79.7689 86.485 79.5643C86.6472 79.3159 86.77 79.0422 86.9026 78.7755C86.9704 78.64 87.0565 78.5356 87.2201 78.5469C87.3768 78.5568 87.4473 78.6598 87.4812 78.8065C87.5772 79.2256 88.1106 79.5474 88.5339 79.4387C88.6877 79.3992 88.8345 79.3357 88.9869 79.2877C89.1802 79.227 89.3368 79.2821 89.3961 79.4274C89.4554 79.5728 89.3876 79.7238 89.1999 79.8098C88.4295 80.1584 87.9172 80.1527 87.3217 79.5925C87.2949 79.5671 87.2639 79.5445 87.2187 79.5079C87.1355 79.6334 87.0692 79.7633 86.976 79.8691C86.7375 80.14 86.5174 80.4392 86.2352 80.6579C85.7625 81.0234 85.2559 80.8527 85.0428 80.291C84.8833 79.8719 84.8791 79.4317 84.9101 78.99C84.9144 78.9208 84.9214 78.8531 84.9313 78.7459C84.8241 78.7967 84.7451 78.8291 84.6688 78.87C83.5089 79.4923 82.5014 80.3164 81.5277 81.1941C81.1439 81.5399 80.9731 81.9392 80.8744 82.4331C80.4016 84.7657 79.9007 87.0926 79.126 89.349C78.8423 90.1745 78.5178 90.9845 78.062 91.7324C77.8461 92.088 77.6048 92.4252 77.2633 92.6736C76.6523 93.1181 75.9566 92.9784 75.5559 92.3321C75.2257 91.7987 75.1946 91.2074 75.2793 90.6119C75.4712 89.2488 76.0131 88.0056 76.6706 86.8146C77.7149 84.9237 78.9566 83.1683 80.3918 81.5497C80.4623 81.4693 80.5117 81.3536 80.5329 81.2478C80.9139 79.4105 81.2384 77.5591 81.7648 75.7543C81.8367 75.5059 81.9397 75.2632 82.0512 75.0304C82.1119 74.9034 82.2544 74.8215 82.3885 74.8907C82.4788 74.9372 82.5366 75.06 82.5917 75.1574C82.61 75.1913 82.5846 75.2576 82.5649 75.3027C82.0794 76.4344 81.8777 77.6424 81.6138 78.8333C81.4952 79.3682 81.3922 79.9058 81.2836 80.442C81.2723 80.497 81.2681 80.5535 81.2539 80.6551L81.2511 80.6565ZM80.245 82.6631L80.19 82.6264C80.1674 82.6645 80.149 82.7054 80.1222 82.7393C79.0441 84.0982 78.038 85.5079 77.2026 87.0319C76.586 88.158 76.0681 89.3264 75.8564 90.6063C75.7788 91.0776 75.7788 91.5489 76.0173 91.985C76.2487 92.4069 76.6311 92.4915 76.9768 92.1599C77.2224 91.9257 77.458 91.6533 77.609 91.3542C77.9505 90.674 78.2793 89.9812 78.539 89.2657C79.2022 87.4369 79.6213 85.5404 80.0376 83.6452C80.1095 83.3193 80.1758 82.9919 80.245 82.6645V82.6631Z" fill="white"/>
<path d="M89.8392 78.8771C89.7545 78.7656 89.6755 78.6753 89.612 78.5737C89.5132 78.417 89.5344 78.2322 89.6487 78.1376C89.7672 78.0403 89.9379 78.06 90.0776 78.1955C90.168 78.283 90.2526 78.3761 90.3429 78.4721C90.7437 78.1729 91.1289 77.8822 91.5198 77.5972C91.6722 77.4857 91.8288 77.3418 92.0377 77.4518C92.2367 77.5577 92.2084 77.7609 92.2099 77.9443C92.2113 78.1673 92.2183 78.3902 92.2099 78.6118C92.1972 78.9363 92.1153 79.2397 91.8641 79.5431C92.3481 79.6715 92.7955 79.8408 93.2583 79.9043C94.5057 80.0751 95.6967 79.8098 96.8157 79.2693C97.5636 78.9081 98.2734 78.465 98.9889 78.0417C99.1568 77.9415 99.2908 77.7764 99.4249 77.6268C99.5392 77.4998 99.7057 77.4617 99.8496 77.5591C99.9893 77.6536 100.034 77.8399 99.9202 77.9768C99.7904 78.132 99.6436 78.2801 99.4799 78.3959C98.176 79.3159 96.7974 80.0864 95.2099 80.3968C94.1628 80.6014 93.1228 80.6071 92.1097 80.2021C91.7329 80.0511 91.3406 79.9368 90.9695 79.7731C90.7578 79.6786 90.5673 79.5276 90.3853 79.3808C90.2766 79.2919 90.2075 79.2891 90.1129 79.3851C90.0607 79.4373 89.9916 79.4796 89.9224 79.5092C89.7587 79.5826 89.5795 79.5262 89.5076 79.3865C89.4342 79.2425 89.5047 79.0492 89.6642 78.9645C89.7192 78.9363 89.7743 78.9095 89.8406 78.8771H89.8392ZM91.6779 78.2646C91.6581 78.2533 91.6383 78.242 91.62 78.2308C91.3477 78.4382 91.0739 78.6456 90.7776 78.8714C90.9271 78.9547 91.0443 79.0309 91.1699 79.0873C91.4126 79.1946 91.524 79.1437 91.5847 78.8813C91.6327 78.6795 91.6482 78.4706 91.6779 78.2646Z" fill="white"/>
<path d="M82.9454 71.6112C82.927 71.8271 82.8819 71.9654 82.7041 71.9922C82.539 72.0176 82.4374 71.9188 82.388 71.7749C82.3315 71.6084 82.2821 71.4362 82.2497 71.2627C82.2215 71.1131 82.2708 70.9833 82.4331 70.9297C82.5855 70.8803 82.7323 70.9494 82.7972 71.1202C82.8635 71.2965 82.9073 71.4814 82.9454 71.6084V71.6112Z" fill="white"/>
<path d="M84.466 57.4958C84.1132 57.541 83.7986 57.6524 83.5022 57.8302C82.9476 58.1647 82.489 58.6106 82.0615 59.089C81.0737 60.1953 80.2877 61.4413 79.5948 62.7438C77.6207 66.4522 76.1969 70.3708 74.8323 74.346C74.6884 74.7665 72.8864 76.4993 71.9875 77.3629C71.1084 78.2082 70.1756 78.9956 69.1131 79.6094C67.8684 80.3305 66.5505 80.7877 65.0843 80.6466C64.1304 80.5549 63.3218 80.1654 62.7277 79.3978C62.1323 78.6273 62.2649 77.5323 61.637 76.8408C61.1275 76.2792 61.0146 76.8408 61.0146 76.8408C61.0979 77.2881 61.2037 77.7312 61.3632 78.1687C61.7061 79.1099 62.2 79.9523 63.0368 80.545C64.1121 81.307 65.3214 81.403 66.5745 81.211C67.8727 81.0121 69.027 80.4575 70.098 79.7181C71.471 78.7712 72.511 77.878 73.6837 76.7025C73.8572 76.529 74.1437 76.2467 74.313 76.0689C74.3257 76.0788 74.0788 77.1301 73.949 77.6706C73.7175 78.6343 73.5059 79.5149 73.4 80.5069C73.3055 81.3945 73.5157 82.0535 74.3017 81.9886C74.3158 81.9886 74.6926 82.0563 74.7745 81.9138C74.8549 81.7741 74.8069 81.5949 74.6475 81.482C74.5416 81.4058 74.361 81.4255 74.2425 81.3719C73.9715 81.2463 74.028 80.8992 74.0393 80.7313C74.0703 80.2712 74.1098 79.982 74.2086 79.5375C74.5444 78.029 75.1738 75.5073 75.2444 75.4269C75.7933 74.7989 76.599 74.0793 77.2439 73.4033C79.7755 70.7575 82.2887 67.8054 84.2416 64.708C84.9218 63.6313 85.3409 62.7311 85.8023 61.5387C86.0493 60.9008 86.5248 59.5673 86.086 58.3919C85.8249 57.6934 85.2449 57.3956 84.4646 57.4944L84.466 57.4958ZM84.9754 60.0217C84.6466 61.0518 84.1344 61.9945 83.5798 62.9145C81.8794 65.7381 79.9547 68.4037 77.8817 70.9635C77.258 71.734 76.6075 72.4819 75.9683 73.2396C75.9203 73.2961 75.8667 73.3497 75.8159 73.4033C75.7298 73.4922 75.7538 73.44 75.7735 73.3822C75.916 72.9532 76.0529 72.5228 76.2011 72.0952C77.3709 68.7156 78.7806 65.4418 80.5417 62.3261C81.1866 61.1845 81.9119 60.0951 82.8475 59.1666C83.1579 58.8589 83.5163 58.5965 83.8733 58.3411C84.0243 58.2324 84.2205 58.1717 84.4053 58.1308C84.8371 58.0363 85.1137 58.2465 85.1673 58.684C85.2238 59.1468 85.1137 59.5871 84.9754 60.0217Z" fill="white"/>
<path d="M50.8004 100.737H50.4882C50.4348 100.794 50.6106 100.786 50.8004 100.737Z" fill="white"/>
<path d="M94.6107 19.2276C93.9532 18.9144 93.3986 18.865 92.8257 19.4633C92.2937 20.0207 91.653 20.4539 91.0844 20.9732C87.2108 24.525 83.5151 28.2771 80.0325 32.2706C76.0729 36.8116 72.1853 41.4217 68.6067 46.3225C62.7999 54.277 58.266 63.0188 54.6761 72.3477C52.5976 77.7481 51.0058 83.2952 50.1874 89.0892C49.891 91.1876 49.7062 93.2803 49.7527 95.3701C49.5552 95.3913 49.3322 95.4153 49.0782 95.4421C38.3636 96.6048 32.6443 96.2295 32.0785 94.3273C31.4689 92.2741 35.1618 89.8075 37.4393 88.6744C37.6976 88.546 38.0518 88.3696 38.2535 88.0408C38.413 87.7811 38.4511 87.4608 38.3608 87.1405C38.2493 86.7425 37.9487 86.3771 37.5762 86.188C33.7478 84.2364 25.4759 84.5483 21.2214 85.5092C21.0675 85.5431 20.973 85.6955 21.0069 85.8479C21.0407 86.0017 21.1945 86.0963 21.3455 86.0624C25.0088 85.2355 33.4811 84.7374 37.3166 86.6932C37.548 86.8117 37.7427 87.0474 37.8119 87.2929C37.8443 87.41 37.8641 87.5836 37.7667 87.7416C37.658 87.918 37.4478 88.0337 37.1825 88.165C36.5108 88.4994 30.6476 91.5164 31.531 94.4896C32.0263 96.1533 35.1138 96.6895 39.1044 96.6895C42.1722 96.6895 45.7734 96.372 49.1375 96.0079C49.5834 95.96 49.9475 95.9205 50.2085 95.8951C50.3271 95.8838 50.4202 95.8019 50.4526 95.6947H50.4583C50.4583 95.6665 50.4611 95.6382 50.4611 95.61C50.4611 95.6015 50.4639 95.5945 50.4639 95.586C50.4639 95.5846 50.4639 95.5832 50.4625 95.5804C50.4654 95.0286 50.4809 94.4741 50.5119 93.9195C50.7391 89.9415 51.4729 86.0525 52.5496 82.2566C55.7951 70.8124 60.7707 60.294 67.4693 50.7435C72.9459 42.9344 79.3171 36.027 86.2555 29.7278C89.0354 27.2033 91.9578 24.8679 95.1441 22.9488C95.8285 22.5367 96.5341 22.1656 97.3215 21.7239C96.6555 20.516 95.8285 19.809 94.6065 19.2276H94.6107Z" fill="white"/>
</svg>
