<svg width="25" height="24" viewBox="0 0 25 24" fill="none" xmlns="http://www.w3.org/2000/svg">
<path d="M21.5571 7.18078C21.5664 7.39198 21.5664 7.59358 21.5664 7.80478C21.5756 14.208 16.8712 21.6 8.26793 21.6C5.73048 21.6 3.23933 20.8416 1.1001 19.4208C1.47053 19.4688 1.84096 19.488 2.21139 19.488C4.31358 19.488 6.36021 18.7584 8.01789 17.4048C6.01756 17.3664 4.25802 16.0128 3.64681 14.0352C4.35063 14.1792 5.07297 14.1504 5.75826 13.9488C3.58198 13.5072 2.01691 11.52 2.00765 9.20639C2.00765 9.18719 2.00765 9.16799 2.00765 9.14879C2.65591 9.52319 3.38751 9.73439 4.12837 9.75359C2.08174 8.33278 1.44275 5.50077 2.68369 3.28317C5.0637 6.31678 8.56427 8.15038 12.3241 8.35198C11.9445 6.67198 12.4631 4.90557 13.6762 3.71517C15.5561 1.88156 18.5196 1.97756 20.2977 3.92637C21.3441 3.71517 22.3535 3.31197 23.2704 2.74556C22.9185 3.86877 22.1869 4.81917 21.2145 5.42397C22.1406 5.30877 23.0481 5.04957 23.9001 4.66557C23.2704 5.64477 22.4739 6.48958 21.5571 7.18078Z" fill="#585858"/>
</svg>
