<svg width="24" height="24" viewBox="0 0 24 24" fill="none" xmlns="http://www.w3.org/2000/svg">
<g clip-path="url(#clip0_328_220)">
<path d="M18.835 0.299805H5.165C3.79516 0.299805 2.48142 0.843973 1.51279 1.8126C0.544168 2.78122 0 4.09496 0 5.4648L0 18.5348C0 19.9046 0.544168 21.2184 1.51279 22.187C2.48142 23.1556 3.79516 23.6998 5.165 23.6998H18.835C20.2048 23.6998 21.5186 23.1556 22.4872 22.187C23.4558 21.2184 24 19.9046 24 18.5348V5.4648C24 4.09496 23.4558 2.78122 22.4872 1.8126C21.5186 0.843973 20.2048 0.299805 18.835 0.299805V0.299805ZM12.729 16.7908H10.442C10.282 16.7908 10.168 16.7848 10.104 16.6778C9.889 16.2588 9.674 15.8428 9.46 15.4298C9.23872 15.0049 9.01069 14.5835 8.776 14.1658C8.53217 13.7335 8.29316 13.2984 8.059 12.8608H8.043C7.82625 13.2932 7.60357 13.7226 7.375 14.1488C7.145 14.5778 6.916 15.0048 6.691 15.4288C6.46621 15.8531 6.23586 16.2745 6 16.6928C5.956 16.7898 5.881 16.7998 5.773 16.7998H3.568C3.525 16.7998 3.501 16.8168 3.496 16.7738C3.49021 16.7345 3.49873 16.6944 3.52 16.6608L6.627 11.5558L3.6 6.4378C3.567 6.3948 3.562 6.3598 3.584 6.3308C3.59584 6.31692 3.61081 6.30605 3.62767 6.2991C3.64454 6.29214 3.66282 6.2893 3.681 6.2908H5.951C6.00047 6.28875 6.04983 6.29692 6.096 6.3148C6.13432 6.33682 6.16715 6.36725 6.192 6.4038C6.385 6.8338 6.6 7.2628 6.836 7.6918C7.072 8.1208 7.311 8.5448 7.552 8.9638C7.793 9.3828 8.016 9.8068 8.22 10.2358H8.236C8.449 9.7958 8.666 9.3668 8.888 8.9478C9.11 8.5288 9.335 8.1078 9.564 7.6838C9.795 7.2588 10.017 6.8368 10.232 6.4198C10.2439 6.37959 10.266 6.3431 10.296 6.3138C10.3359 6.29393 10.3806 6.28561 10.425 6.2898H12.534C12.5577 6.28403 12.5828 6.28782 12.6037 6.30036C12.6247 6.31289 12.6399 6.33317 12.646 6.3568C12.6502 6.3738 12.6495 6.39164 12.644 6.40827C12.6386 6.4249 12.6285 6.43964 12.615 6.4508L12.616 6.4548L9.621 11.3978L12.825 16.6468C12.846 16.6838 12.851 16.7268 12.841 16.7678C12.831 16.8038 12.794 16.7798 12.729 16.7908V16.7908ZM20.41 16.3708C19.8866 16.5888 19.3416 16.7507 18.784 16.8538C18.2737 16.9486 17.756 16.9971 17.237 16.9988C16.4962 17.0097 15.7622 16.856 15.088 16.5488C14.4599 16.2579 13.9347 15.7834 13.582 15.1878C13.1943 14.4929 13.0048 13.705 13.034 12.9098C13.028 12.1708 13.2171 11.4434 13.582 10.8008C13.958 10.1462 14.5108 9.61075 15.177 9.2558C16.0189 8.81583 16.9663 8.61784 17.914 8.6838C18 8.6888 18.102 8.6968 18.22 8.7078V5.5358C18.22 5.4608 18.252 5.4228 18.317 5.4228H20.345C20.3675 5.41966 20.3904 5.42558 20.4086 5.43927C20.4268 5.45295 20.4388 5.47328 20.442 5.4958C20.443 5.50377 20.443 5.51184 20.442 5.5198V15.0368C20.442 15.2198 20.45 15.4178 20.466 15.6328C20.482 15.8468 20.496 16.0398 20.506 16.2118C20.5081 16.2449 20.5 16.2779 20.4829 16.3063C20.4657 16.3347 20.4403 16.3572 20.41 16.3708V16.3708ZM17.953 10.5588C18.043 10.5678 18.132 10.5838 18.219 10.6068V15.0018C18.1037 15.0361 17.985 15.0576 17.865 15.0658C17.7256 15.077 17.5858 15.0824 17.446 15.0818C17.1642 15.0831 16.8841 15.0396 16.616 14.9528C16.3626 14.873 16.1311 14.7354 15.94 14.5508C15.7406 14.3499 15.5868 14.1084 15.489 13.8428C15.3692 13.5126 15.3119 13.163 15.32 12.8118C15.2989 12.3642 15.414 11.9207 15.65 11.5398C15.863 11.2238 16.154 10.9688 16.495 10.7988C16.845 10.6258 17.231 10.5368 17.622 10.5408C17.733 10.5428 17.843 10.5478 17.953 10.5588Z" fill="white"/>
</g>
<defs>
<clipPath id="clip0_328_220">
<rect width="24" height="24" fill="white"/>
</clipPath>
</defs>
</svg>
