<svg width="24" height="24" viewBox="0 0 24 24" fill="none" xmlns="http://www.w3.org/2000/svg">
<g clip-path="url(#clip0_328_224)">
<path d="M4.25 0.299805C1.9 0.299805 0 2.1998 0 4.5498V19.4498C0 21.7998 1.9 23.6998 4.25 23.6998H19.75C22.1 23.6998 24 21.7998 24 19.4498V4.5498C24 2.1998 22.1 0.299805 19.75 0.299805H4.25ZM15.56 5.4298H17.59C17.64 5.4198 17.68 5.4598 17.69 5.4998V15.0398C17.69 15.2198 17.7 15.4198 17.71 15.6398C17.73 15.8498 17.74 16.0498 17.75 16.2198C17.75 16.2898 17.72 16.3498 17.65 16.3798C17.13 16.5998 16.58 16.7598 16.02 16.8598C15.52 16.9498 15 16.9998 14.48 16.9998C13.74 17.0098 13 16.8598 12.33 16.5498C11.7 16.2598 11.18 15.7798 10.82 15.1898C10.45 14.5798 10.27 13.8198 10.27 12.9098C10.26 12.1698 10.45 11.4398 10.82 10.7998C11.2 10.1498 11.75 9.6098 12.41 9.2498C13.11 8.8598 13.95 8.6698 14.94 8.6698C14.99 8.6698 15.06 8.6698 15.15 8.6798C15.24 8.6898 15.34 8.6898 15.46 8.6998V5.5398C15.46 5.4698 15.49 5.4298 15.56 5.4298ZM6.63 6.2898H8.58C8.64 6.2798 8.7 6.3198 8.71 6.3898C8.72 6.3998 8.72 6.4098 8.72 6.4198V16.6798C8.72 16.7898 8.67 16.8398 8.58 16.8398H6.62C6.53 16.8398 6.49 16.7898 6.49 16.6798V6.4198C6.49 6.3298 6.54 6.2898 6.63 6.2898V6.2898ZM14.86 10.5298C14.47 10.5298 14.08 10.6098 13.73 10.7898C13.39 10.9598 13.1 11.2098 12.88 11.5298C12.66 11.8498 12.55 12.2798 12.55 12.7998C12.54 13.1498 12.6 13.4998 12.72 13.8298C12.82 14.0998 12.97 14.3398 13.17 14.5398C13.36 14.7198 13.59 14.8598 13.85 14.9398C14.12 15.0298 14.4 15.0698 14.68 15.0698C14.83 15.0698 14.97 15.0598 15.1 15.0498C15.23 15.0598 15.35 15.0398 15.46 14.9998V10.5998C15.37 10.5798 15.28 10.5598 15.19 10.5498C15.08 10.5398 14.97 10.5298 14.86 10.5298V10.5298Z" fill="white"/>
</g>
<defs>
<clipPath id="clip0_328_224">
<rect width="24" height="24" fill="white"/>
</clipPath>
</defs>
</svg>
