<svg width="243" height="300" viewBox="0 0 243 300" fill="none" xmlns="http://www.w3.org/2000/svg">
<g clip-path="url(#clip0_328_226)">
<path d="M229.1 80.3996C227.4 77.7996 225.6 75.3996 223.7 72.9996C221.8 70.5996 219.8 68.2996 217.6 66.1996C215.5 63.9996 213.3 61.9996 210.9 59.9996C208.6 57.9996 206.2 56.1996 203.7 54.3996C200 51.7996 196.1 49.3996 192.1 47.1996C188.1 44.9996 183.9 43.0996 179.7 41.4996C175.5 39.7996 171.1 38.3996 166.7 37.2996C162.3 36.1996 157.8 35.2996 153.3 34.6996C151 34.3996 148.7 34.1996 146.5 33.9996C144.3 33.6996 142 33.5996 139.7 33.5996C137.4 33.5996 135.1 33.5996 132.8 33.6996C130.5 33.7996 128.2 33.9996 125.9 34.2996C123.6 34.5996 121.3 34.8996 119 35.2996C116.7 35.6996 114.5 36.1996 112.2 36.7996C109.9 37.3996 107.7 37.9996 105.5 38.6996C103.3 39.3996 101.1 40.1996 98.9 41.0996L33.3 67.7996C31.5 68.4996 29.7 69.3996 28 70.1996C26.3 71.0996 24.7 71.9996 23.1 73.0996C21.5 74.0996 20 75.1996 18.6 76.2996C17.2 77.3996 15.8 78.5996 14.6 79.8996C12.7 81.7996 11 83.6996 9.4 85.7996C7.8 87.8996 6.5 89.9996 5.3 92.2996C4.1 94.5996 3.1 96.8996 2.3 99.2996C1.6 101.7 1 104.2 0.6 106.6C0.4 107.9 0.3 109.1 0.2 110.4C0 111.7 0 113 0 114.3C0 115.6 0.1 116.9 0.2 118.2C0.3 119.5 0.5 120.8 0.7 122.1C1 123.3 1.3 124.6 1.6 125.9C2 127.2 2.4 128.5 2.8 129.8C3.3 131.1 3.8 132.4 4.4 133.6C5 134.9 5.6 136.1 6.3 137.4C7.2 139.1 8.3 140.7 9.4 142.2C10.5 143.7 11.7 145.2 13 146.7C14.3 148.1 15.6 149.5 17 150.8C18.4 152.1 19.9 153.3 21.4 154.5C23.7 156.3 26.1 157.9 28.7 159.3C31.2 160.7 33.9 162 36.6 163.1C39.3 164.2 42.1 165.1 45 165.9C47.9 166.6 50.8 167.2 53.7 167.6C55.2 167.8 56.7 167.9 58.2 168C59.7 168.1 61.2 168.1 62.7 168.1C64.2 168.1 65.7 168 67.2 167.9C68.7 167.8 70.2 167.6 71.7 167.4C73.2 167.2 74.7 166.9 76.2 166.6C77.7 166.3 79.2 165.9 80.6 165.5C82.1 165.1 83.5 164.6 84.9 164.1C86.3 163.6 87.7 163 89.1 162.4L147.1 136.9C149.7 135.8 151.8 134.2 153.5 132.4C155.2 130.6 156.4 128.5 157.1 126.2C157.8 124 158 121.6 157.7 119.2C157.4 116.8 156.5 114.4 155.1 112.1C153.7 109.8 151.8 107.9 149.6 106.3C147.4 104.7 145 103.5 142.4 102.7C139.8 101.9 137.1 101.6 134.4 101.7C131.7 101.8 129 102.4 126.4 103.5L69 128.3C68.4 128.5 67.9 128.7 67.3 128.9C66.7 129.1 66.2 129.2 65.6 129.4C65 129.5 64.5 129.6 63.9 129.7C63.3 129.8 62.8 129.8 62.2 129.8C61.3 129.8 60.5 129.8 59.6 129.7C58.7 129.6 57.9 129.5 57.1 129.3C56.3 129.1 55.4 128.9 54.6 128.6C53.8 128.3 53 128 52.3 127.6C51.9 127.4 51.5 127.2 51.2 127C50.8 126.8 50.5 126.6 50.1 126.3C49.8 126.1 49.4 125.8 49.1 125.6C48.8 125.3 48.5 125.1 48.2 124.8C47.9 124.5 47.6 124.2 47.3 123.9C47 123.6 46.7 123.3 46.5 123C46.2 122.7 46 122.3 45.8 122C45.6 121.7 45.3 121.3 45.1 120.9C44.8 120.4 44.6 119.9 44.3 119.4C44.1 118.9 43.9 118.4 43.7 117.9C43.5 117.4 43.4 116.9 43.3 116.4C43.2 115.9 43.1 115.4 43.1 114.9C43 114.2 43 113.4 43.1 112.7C43.2 112 43.3 111.2 43.5 110.5C43.7 109.8 43.9 109.1 44.2 108.4C44.5 107.7 44.9 107.1 45.3 106.4C45.5 106.1 45.7 105.8 46 105.5C46.2 105.2 46.5 104.9 46.7 104.6C47 104.3 47.2 104 47.5 103.8C47.8 103.5 48.1 103.3 48.4 103C48.7 102.7 49 102.5 49.3 102.3C49.6 102.1 50 101.8 50.3 101.6C50.7 101.4 51 101.2 51.4 101C51.8 100.8 52.2 100.6 52.6 100.5L118.6 72.8996C120.3 72.1996 122 71.5996 123.7 71.0996C125.4 70.5996 127.1 70.0996 128.9 69.6996C130.6 69.2996 132.4 68.9996 134.1 68.7996C135.9 68.5996 137.6 68.4996 139.4 68.3996C142 68.2996 144.7 68.3996 147.3 68.5996C149.9 68.7996 152.6 69.1996 155.2 69.7996C157.8 70.3996 160.4 71.0996 162.9 71.8996C165.4 72.7996 167.8 73.7996 170.2 74.8996C171.4 75.4996 172.5 76.0996 173.7 76.6996C174.8 77.3996 176 77.9996 177.1 78.7996C178.2 79.4996 179.3 80.2996 180.3 81.0996C181.3 81.8996 182.4 82.6996 183.3 83.5996C184.3 84.4996 185.3 85.2996 186.2 86.2996C187.1 87.1996 188 88.1996 188.9 89.1996C189.8 90.1996 190.6 91.1996 191.4 92.2996C192.2 93.3996 193 94.4996 193.7 95.5996C194.7 97.0996 195.5 98.5996 196.3 100.2C197.1 101.7 197.8 103.3 198.3 104.8C198.9 106.4 199.4 107.9 199.8 109.5C200.2 111.1 200.5 112.6 200.8 114.2C201.2 116.6 201.3 118.9 201.3 121.3C201.3 123.6 201 126 200.6 128.3C200.2 130.6 199.6 132.9 198.8 135.1C198 137.3 197 139.5 195.8 141.5C195.2 142.5 194.6 143.6 193.9 144.5C193.2 145.5 192.5 146.5 191.7 147.4C190.9 148.3 190.1 149.3 189.3 150.2C188.5 151.1 187.6 152 186.6 152.8C185.7 153.6 184.7 154.5 183.7 155.2C182.7 156 181.6 156.7 180.5 157.5C179.4 158.2 178.2 158.9 177 159.5C175.8 160.1 174.6 160.8 173.3 161.3L79.7 203.6L116.1 258.5C117.8 261 119.9 263.1 122.3 264.7C124.7 266.3 127.4 267.5 130.2 268.2C133 268.9 135.9 269.1 138.8 268.8C141.7 268.5 144.5 267.6 147.1 266.2C149.6 264.8 151.7 263 153.3 261C154.9 259 156 256.7 156.7 254.2C157.3 251.8 157.5 249.2 157.1 246.7C156.7 244.2 155.9 241.6 154.4 239.2C154.3 239.1 154.3 239 154.2 238.9C154.1 238.8 154.1 238.7 154 238.6C154 238.5 153.9 238.4 153.8 238.3C153.7 238.2 153.7 238.1 153.6 238L142 220.8L195 196.3C198 194.9 200.8 193.4 203.6 191.8C206.3 190.2 208.9 188.4 211.4 186.6C213.9 184.8 216.2 182.8 218.4 180.8C220.6 178.8 222.6 176.7 224.5 174.5C227.3 171.2 229.9 167.8 232.1 164.2C234.3 160.6 236.2 156.9 237.7 153.1C239.2 149.3 240.5 145.4 241.4 141.4C242.3 137.4 242.8 133.4 243.1 129.3C243.2 127.3 243.2 125.2 243.2 123.1C243.1 121 243 119 242.8 116.9C242.6 114.8 242.2 112.8 241.9 110.7C241.5 108.6 241 106.6 240.4 104.5C239.8 102.5 239.2 100.4 238.4 98.3996C237.7 96.3996 236.8 94.2996 235.9 92.2996C235 90.2996 234 88.2996 232.9 86.2996C231.6 84.2996 230.4 82.2996 229.1 80.3996Z" fill="white"/>
</g>
<defs>
<clipPath id="clip0_328_226">
<rect width="243" height="300" fill="white"/>
</clipPath>
</defs>
</svg>
