<svg width="24" height="24" viewBox="0 0 24 24" fill="none" xmlns="http://www.w3.org/2000/svg">
<g clip-path="url(#clip0_324_202)">
<path d="M22.3949 6.00001C22.2279 5.71001 21.9969 5.45701 21.7429 5.31001L12.9269 0.220012C12.4179 -0.0739883 11.5869 -0.0739883 11.0789 0.220012L2.26089 5.31001C1.75289 5.60301 1.33789 6.32301 1.33789 6.91001V17.09C1.33789 17.384 1.44189 17.71 1.60889 18C1.77589 18.29 2.00689 18.543 2.26089 18.69L11.0769 23.78C11.5849 24.073 12.4169 24.073 12.9249 23.78L21.7409 18.69C21.9949 18.543 22.2259 18.29 22.3929 18C22.5599 17.71 22.6629 17.384 22.6629 17.09V6.91001C22.6659 6.61601 22.5629 6.29001 22.3949 6.00001V6.00001ZM12.0009 19.11C8.08089 19.11 4.89189 15.92 4.89189 12C4.89189 8.08001 8.08189 4.89001 12.0019 4.89001C13.2491 4.89238 14.4738 5.2217 15.554 5.84513C16.6341 6.46856 17.532 7.3643 18.1579 8.44301L15.0819 10.223C14.7692 9.68275 14.3201 9.23401 13.7796 8.92166C13.2391 8.6093 12.6261 8.44425 12.0019 8.44301C11.0588 8.44381 10.1545 8.81882 9.48759 9.48571C8.82069 10.1526 8.44569 11.0569 8.44489 12C8.44621 12.9426 8.82132 13.8462 9.48794 14.5127C10.1546 15.1791 11.0583 15.554 12.0009 15.555C12.6249 15.5537 13.2376 15.3888 13.778 15.0768C14.3185 14.7649 14.7677 14.3167 15.0809 13.777L18.1589 15.557C17.5326 16.6359 16.6344 17.5317 15.5539 18.1551C14.4734 18.7785 13.2484 19.1078 12.0009 19.11V19.11ZM19.1109 12.395H18.3209V13.185H17.5309V12.395H16.7409V11.605H17.5309V10.815H18.3209V11.605H19.1109V12.395ZM22.0729 12.395H21.2829V13.185H20.4929V12.395H19.7029V11.605H20.4929V10.815H21.2829V11.605H22.0729V12.395Z" fill="white"/>
</g>
<defs>
<clipPath id="clip0_324_202">
<rect width="24" height="24" fill="white"/>
</clipPath>
</defs>
</svg>
