<svg width="24" height="24" viewBox="0 0 24 24" fill="none" xmlns="http://www.w3.org/2000/svg">
<g clip-path="url(#clip0_329_246)">
<path d="M2.176 2.81445C2.409 3.23445 2.652 3.59445 2.906 3.90445C3.153 3.89145 4.038 4.36045 4.218 4.42745C4.726 4.70945 5.281 5.05745 5.785 5.39345C6.29 5.73045 6.745 6.05545 7.057 6.29345C7.213 6.41345 7.335 6.51145 7.409 6.57945C7.43812 6.60364 7.4643 6.63116 7.487 6.66145C7.49134 6.66793 7.49471 6.675 7.497 6.68245C7.49954 6.69015 7.5005 6.69828 7.49981 6.70636C7.49913 6.71444 7.49681 6.7223 7.493 6.72945C7.48905 6.73716 7.4834 6.74387 7.47647 6.74907C7.46953 6.75427 7.46151 6.75782 7.453 6.75945C7.44375 6.76116 7.43426 6.76116 7.425 6.75945C7.368 6.75945 7.222 6.59645 6.928 6.34445C6.05246 5.67131 5.1305 5.06079 4.169 4.51745C3.665 4.23745 3.213 3.97545 2.905 3.90445C2.78583 3.88679 2.66547 3.87844 2.545 3.87945C2.2772 3.88454 2.01164 3.92936 1.757 4.01245C2.251 4.42645 2.667 4.72845 3.037 4.96145C2.467 4.77945 1.855 4.75145 1.135 5.09445C1.661 5.42345 2.102 5.66145 2.489 5.83945C3.592 5.99545 4.747 6.53545 5.713 7.14845C6.196 7.45545 6.617 7.76345 6.932 8.01545C7.089 8.14045 7.222 8.25245 7.322 8.34345C7.42 8.43445 7.496 8.49745 7.519 8.55345C7.549 8.62645 7.5 8.65745 7.435 8.61145C7.403 8.58945 7.347 8.50945 7.251 8.42045C7.12678 8.30709 6.9987 8.19803 6.867 8.09345C6.555 7.84345 6.138 7.54145 5.658 7.23645C4.765 6.67445 3.426 6.22345 2.485 5.83945C1.883 5.72945 1.26 5.77945 0.579 6.22945C1.028 6.42945 1.416 6.57845 1.761 6.69245C2.573 6.69245 3.653 7.05745 4.696 7.61445C5.738 8.17045 6.736 8.82845 7.219 9.38845C7.285 9.46545 7.203 9.51445 7.145 9.45845C6.625 8.96345 5.682 8.25445 4.647 7.70245C4.008 7.36545 2.494 6.69245 1.761 6.69245L1.765 6.69445C1.198 6.71445 0.635 6.88945 0.086 7.41045C0.563 7.52845 0.971 7.60645 1.33 7.65945C0.89 7.74745 0.46 7.95945 0.041 8.38145C0.365 8.45145 0.657 8.50345 0.923 8.54345C0.595 8.70245 0.284 8.94745 0 9.32345C0.373 9.35345 0.703 9.36545 1 9.36745C0.64 9.53345 0.304 9.79745 0.004 10.2175C0.537 10.2445 0.984 10.2425 1.368 10.2205C0.946 10.3925 0.556 10.6845 0.223 11.1885C0.885 11.1985 1.411 11.1665 1.851 11.1125L1.845 11.1145C2.835 11.0415 4.142 11.2415 4.807 11.9615C4.859 12.0185 4.783 12.0795 4.735 12.0355C4.087 11.4555 3.242 11.2085 1.845 11.1145H1.843C1.3 11.2635 0.797 11.5605 0.383 12.1885C0.919 12.1965 1.365 12.1755 1.749 12.1385C1.28 12.3955 0.876 12.7825 0.61 13.4445C1.093 13.3525 1.498 13.2545 1.847 13.1525C1.484 13.4175 1.179 13.7885 0.974 14.3465C1.298 14.2745 1.586 14.2005 1.845 14.1255C1.58763 14.4434 1.41156 14.8192 1.332 15.2205C1.684 15.0905 1.987 14.9665 2.258 14.8435C2.001 15.1435 1.805 15.5245 1.708 16.0335C2.203 15.8345 2.607 15.6455 2.946 15.4655C2.636 15.7985 2.403 16.2255 2.311 16.8215C2.80815 16.6068 3.28995 16.3582 3.753 16.0775C3.32 16.4395 2.989 16.9205 2.874 17.6645C3.662 17.3165 4.213 17.0015 4.641 16.7095C4.457 17.0815 4.359 17.5155 4.406 18.0575C5.168 17.4735 5.649 17.0015 6.008 16.5845C5.984 16.8535 6.005 17.1445 6.085 17.4685C6.631 16.5295 7.174 16.2565 7.735 15.9425C6.84 16.3935 6.973 16.7325 6.973 17.1265C7.656 16.4065 8.608 15.6445 8.9 15.1665C8.51 15.7515 8.353 16.3065 8.25 16.7965C6.257 17.8505 5.043 18.1255 3.682 18.5465C4.21 18.7405 4.775 18.9295 4.541 19.1985L3.917 19.8205C4.316 19.6965 4.722 19.5205 5.075 19.7615C5.04 20.0885 4.628 20.2535 4.275 20.4445C4.896 20.2205 5.031 20.2725 5.195 20.3245C5.276 20.7175 4.992 20.9275 4.807 21.1865C6.372 19.9965 8.413 19.0565 9.851 18.6645C11.873 17.9835 14.481 17.2755 15.19 15.5495L15.902 12.7025L15.898 12.7065C15.787 12.6725 15.652 12.6435 15.548 12.5735C15.442 12.4999 15.3602 12.3966 15.313 12.2765C15.061 12.3415 14.873 12.3065 14.753 12.1885C14.636 12.0715 14.586 11.8925 14.55 11.6975C14.347 11.7385 14.188 11.7135 14.083 11.6205C13.967 11.5195 13.913 11.3605 13.885 11.1765L13.877 11.1375L13.914 11.1225C14.0274 11.0802 14.1304 11.0141 14.216 10.9285C14.2448 10.8993 14.2661 10.8636 14.2783 10.8244C14.2905 10.7853 14.2931 10.7438 14.286 10.7035L14.28 10.6665L14.31 10.6505C14.473 10.5575 14.655 10.4815 14.738 10.3705C14.7606 10.3409 14.777 10.307 14.7861 10.2709C14.7952 10.2348 14.7969 10.1972 14.791 10.1605C14.7666 10.0314 14.7137 9.90939 14.636 9.80345L14.609 9.76345L14.649 9.73645C14.767 9.64645 14.893 9.55745 14.957 9.47645C14.989 9.43645 15.005 9.40045 15.004 9.36645C15.004 9.33345 14.989 9.29645 14.94 9.24945L14.842 9.15545L14.977 9.16145C15.19 9.17145 15.372 9.15445 15.515 9.10845C15.6263 9.07622 15.723 9.00665 15.789 8.91145C15.782 8.87845 15.769 8.84845 15.769 8.81345C15.7747 8.68902 15.8281 8.57157 15.9181 8.48552C16.0082 8.39947 16.1279 8.35145 16.2525 8.35145C16.3771 8.35145 16.4968 8.39947 16.5869 8.48552C16.6769 8.57157 16.7303 8.68902 16.736 8.81345C16.736 8.85745 16.721 8.89745 16.71 8.93845C16.887 8.95245 17.057 8.94845 17.217 8.87845L17.219 8.87945L17.254 8.86645C17.49 8.78145 17.588 8.91145 17.974 8.41045C16.284 6.22045 13.817 7.77545 12.997 10.0325C12.787 10.6085 11.592 10.6105 11.246 10.0325C9.876 7.08245 5.716 3.96445 2.176 2.81445V2.81445ZM3.036 4.95945C3.942 5.25245 4.949 5.74145 5.806 6.28745C6.236 6.56045 6.619 6.83045 6.92 7.06645C7.221 7.30245 7.486 7.53945 7.54 7.64145C7.594 7.74345 7.54 7.78145 7.458 7.70145C7.377 7.62345 7.155 7.38145 6.858 7.14845C6.56 6.91445 6.178 6.64345 5.752 6.37145C4.977 5.88145 3.77 5.41345 3.036 4.95945V4.95945ZM1.336 7.65945C2.452 7.67345 3.686 8.10645 4.77 8.65645C5.311 8.93145 5.793 9.22345 6.165 9.48645C6.537 9.74945 6.837 10.0105 6.899 10.1435C6.96 10.2775 6.879 10.2735 6.812 10.1985C6.60041 9.9652 6.36439 9.75533 6.108 9.57245C5.66628 9.26497 5.20347 8.98895 4.723 8.74645C3.76 8.26445 2.439 7.82045 1.336 7.66045V7.65945ZM16.252 8.43145C16.202 8.43145 16.1524 8.44131 16.1062 8.46045C16.06 8.4796 16.018 8.50767 15.9826 8.54305C15.9472 8.57842 15.9191 8.62043 15.9 8.66665C15.8809 8.71288 15.871 8.76242 15.871 8.81245C15.871 8.86249 15.8809 8.91203 15.9 8.95826C15.9191 9.00448 15.9472 9.04648 15.9826 9.08186C16.018 9.11724 16.06 9.1453 16.1062 9.16445C16.1524 9.1836 16.202 9.19345 16.252 9.19345C16.353 9.19345 16.45 9.15331 16.5214 9.08186C16.5929 9.01041 16.633 8.9135 16.633 8.81245C16.633 8.71141 16.5929 8.6145 16.5214 8.54305C16.45 8.47159 16.353 8.43145 16.252 8.43145ZM1.7 8.47845C2.522 8.55045 3.42 8.84645 4.234 9.22845C5.32 9.73745 6.269 10.3865 6.668 10.8955C6.703 10.9405 6.654 11.0265 6.588 10.9575C6.16 10.5175 5.266 9.82645 4.191 9.32245C3.278 8.90145 1.909 8.45245 0.929 8.54245C1.18 8.51245 1.426 8.45445 1.7 8.47845V8.47845ZM18.039 8.48845C17.673 8.96345 17.509 8.91145 17.336 8.95245C17.43 9.38245 17.686 9.53845 17.921 9.72245L17.861 9.73445C20.176 9.28745 22.047 9.44845 24 9.49845L18.039 8.48845V8.48845ZM17.861 9.73445H17.859L17.855 9.75045L17.861 9.73445ZM17.236 8.97745C17.053 9.05145 16.863 9.05345 16.673 9.03645C16.6334 9.114 16.5733 9.17922 16.4993 9.22505C16.4252 9.27089 16.3401 9.29558 16.253 9.29645C16.1616 9.29601 16.0722 9.26965 15.9952 9.22045C15.9182 9.17124 15.8568 9.10119 15.818 9.01845C15.7459 9.10531 15.651 9.1704 15.544 9.20645C15.405 9.25145 15.236 9.26345 15.051 9.26145C15.071 9.29645 15.105 9.32945 15.106 9.36545C15.1042 9.42977 15.0798 9.4914 15.037 9.53945C14.964 9.63145 14.848 9.70945 14.742 9.78745C14.829 9.92845 14.879 10.0475 14.891 10.1495C14.9054 10.2496 14.8803 10.3515 14.821 10.4335C14.715 10.5735 14.533 10.6435 14.382 10.7265C14.3882 10.8241 14.3559 10.9203 14.292 10.9945C14.2074 11.0798 14.1064 11.1472 13.995 11.1925C14.022 11.3485 14.069 11.4755 14.149 11.5465C14.235 11.6225 14.36 11.6495 14.574 11.5935L14.629 11.5795L14.639 11.6345C14.672 11.8415 14.727 12.0195 14.826 12.1175C14.926 12.2165 15.07 12.2525 15.329 12.1725L15.378 12.1575L15.394 12.2055C15.444 12.3475 15.514 12.4285 15.603 12.4875C15.69 12.5475 15.85 12.5995 15.961 12.6345C16.759 11.7655 17.486 10.8625 17.845 9.77445C17.62 9.59745 17.339 9.43645 17.236 8.97745V8.97745ZM1.006 9.36345C2.171 9.28345 3.289 9.55945 4.208 9.98945C5.128 10.4195 5.866 10.9285 6.182 11.2965C6.257 11.3835 6.163 11.4165 6.11 11.3685C5.52599 10.8476 4.87032 10.4132 4.163 10.0785C3.259 9.66445 1.97 9.43445 1.006 9.36345ZM1.87 10.1655C2.48 10.1855 3.11 10.3205 3.676 10.5175C4.432 10.7795 5.097 11.1315 5.423 11.4975C5.468 11.5475 5.416 11.6245 5.349 11.5665C5 11.2625 4.388 10.8735 3.643 10.6155C3.069 10.4205 2.03 10.2465 1.375 10.2185C1.572 10.1965 1.667 10.1585 1.87 10.1655V10.1655ZM2.92 11.9535C3.343 11.9875 3.806 12.0865 4.261 12.3605C4.304 12.3865 4.31 12.4965 4.212 12.4505C3.356 12.0485 2.886 11.9605 1.755 12.1405C2.141 12.0125 2.495 11.9195 2.919 11.9535H2.92ZM2.88 12.7415C3.28 12.7065 3.664 12.7395 4.177 12.9455C4.221 12.9635 4.257 13.0715 4.144 13.0395C3.287 12.7965 2.977 12.7115 1.857 13.1435C2.137 12.9145 2.479 12.7775 2.88 12.7415V12.7415ZM4.165 13.4285C4.482 13.4055 4.8 13.4025 5.099 13.4345C5.151 13.4405 5.154 13.5395 5.093 13.5365C4.47828 13.5028 3.86173 13.5414 3.256 13.6515C3.013 13.6975 2.833 13.6945 1.851 14.1095C2.138 13.8765 2.645 13.6575 3.236 13.5495C3.54368 13.4932 3.85411 13.4531 4.166 13.4295L4.165 13.4285ZM5.445 13.9185C5.544 13.9215 5.507 14.0225 5.451 14.0215C4.723 14.0115 4.147 14.1535 3.576 14.3165C3.12454 14.4593 2.68404 14.6348 2.258 14.8415C2.541 14.6115 2.971 14.3845 3.549 14.2195C4.128 14.0535 4.797 13.8935 5.445 13.9175V13.9185ZM5.973 14.3165C6.009 14.3115 6.078 14.4005 5.991 14.4165C5.261 14.5535 4.747 14.6835 4.197 14.8705C3.981 14.9445 3.617 15.0775 2.954 15.4575C3.214 15.1885 3.61 14.9655 4.167 14.7775C4.725 14.5875 5.363 14.4075 5.973 14.3175V14.3165ZM6.284 14.8235C6.359 14.8115 6.381 14.9105 6.304 14.9255C5.087 15.1665 4.544 15.4815 3.764 16.0695C4.268 15.5465 5.061 15.0185 6.284 14.8235ZM6.879 15.2715C6.966 15.2585 6.989 15.3585 6.9 15.3715C6.028 15.5015 5.423 15.9245 4.645 16.7015C4.94 16.2085 5.649 15.4615 6.879 15.2715V15.2715ZM7.251 15.6615C7.297 15.6555 7.365 15.7345 7.274 15.7615C7.0381 15.8298 6.81292 15.9308 6.605 16.0615C6.423 16.1795 6.305 16.2615 6.008 16.5685C6.119 16.3235 6.304 16.1345 6.55 15.9785C6.797 15.8215 7.059 15.6855 7.25 15.6615H7.251Z" fill="white"/>
</g>
<defs>
<clipPath id="clip0_329_246">
<rect width="24" height="24" fill="white"/>
</clipPath>
</defs>
</svg>
