<svg width="24" height="24" viewBox="0 0 24 24" fill="none" xmlns="http://www.w3.org/2000/svg">
<g clip-path="url(#clip0_328_208)">
<path d="M14.2504 0.18L15.1504 0.38L15.8804 0.64L16.4704 0.94L16.9204 1.26L17.2604 1.6L17.5104 1.94L17.6704 2.27L17.7704 2.57L17.8104 2.83L17.8304 3.03L17.8204 3.16V8.5L17.7704 9.13L17.6404 9.68L17.4304 10.14L17.1704 10.52L16.8704 10.83L16.5404 11.08L16.1904 11.27L15.8404 11.41L15.5104 11.51L15.2104 11.58L14.9504 11.62L14.7404 11.64H8.77043L8.08043 11.69L7.49043 11.83L6.99043 12.05L6.58043 12.32L6.25043 12.64L5.98043 12.99L5.78043 13.35L5.63043 13.72L5.53043 14.07L5.46043 14.39L5.42043 14.66L5.40043 14.87V17.93H3.17043L2.96043 17.9L2.68043 17.83L2.36043 17.71L2.01043 17.53L1.65043 17.27L1.29043 16.91L0.94043 16.45L0.62043 15.86L0.34043 15.13L0.13043 14.25L-0.00957032 13.2L-0.0595703 11.97L0.000429686 10.75L0.16043 9.71L0.40043 8.84L0.72043 8.13L1.08043 7.56L1.48043 7.12L1.90043 6.79L2.32043 6.55L2.72043 6.39L3.08043 6.29L3.40043 6.24L3.64043 6.23H3.80043L3.86043 6.24H12.0204V5.41H6.18043L6.17043 2.66L6.15043 2.29L6.20043 1.95L6.31043 1.64L6.48043 1.36L6.73043 1.1L7.04043 0.87L7.42043 0.67L7.86043 0.49L8.37043 0.34L8.95043 0.22L9.59043 0.12L10.3004 0.06L11.0704 0.02L11.9104 0L13.1804 0.05L14.2504 0.18ZM7.95043 2.16L7.72043 2.49L7.64043 2.9L7.72043 3.31L7.95043 3.65L8.28043 3.87L8.69043 3.96L9.10043 3.87L9.43043 3.65L9.66043 3.31L9.74043 2.9L9.66043 2.49L9.43043 2.16L9.10043 1.94L8.69043 1.85L8.28043 1.94L7.95043 2.16ZM21.0404 6.11L21.3204 6.17L21.6404 6.29L21.9904 6.47L22.3504 6.74L22.7104 7.09L23.0604 7.56L23.3804 8.15L23.6604 8.88L23.8704 9.76L24.0104 10.8L24.0604 12.03L24.0004 13.26L23.8404 14.3L23.6004 15.16L23.2804 15.87L22.9204 16.44L22.5204 16.89L22.1004 17.22L21.6804 17.46L21.2804 17.62L20.9204 17.71L20.6004 17.76L20.3604 17.78L20.2004 17.77H11.9804V18.59H17.8204L17.8304 21.35L17.8504 21.71L17.8004 22.05L17.6904 22.36L17.5204 22.65L17.2704 22.9L16.9604 23.14L16.5804 23.34L16.1404 23.51L15.6304 23.66L15.0504 23.79L14.4104 23.88L13.7004 23.95L12.9304 23.99L12.0904 24L10.8204 23.96L9.75043 23.82L8.85043 23.62L8.12043 23.37L7.53043 23.07L7.08043 22.74L6.74043 22.4L6.49043 22.06L6.33043 21.73L6.23043 21.43L6.19043 21.18L6.17043 20.98L6.18043 20.85V15.51L6.23043 14.87L6.36043 14.33L6.57043 13.87L6.83043 13.49L7.13043 13.17L7.46043 12.93L7.81043 12.73L8.16043 12.59L8.49043 12.49L8.79043 12.43L9.05043 12.39L9.26043 12.37L9.39043 12.36H15.2304L15.9204 12.31L16.5104 12.17L17.0104 11.96L17.4204 11.68L17.7504 11.36L18.0204 11.01L18.2204 10.65L18.3704 10.29L18.4704 9.94L18.5404 9.62L18.5804 9.34L18.6004 9.13V6.07H20.6904L20.8304 6.08L21.0404 6.11ZM14.5704 20.36L14.3404 20.69L14.2604 21.1L14.3404 21.51L14.5704 21.84L14.9004 22.07L15.3104 22.15L15.7204 22.07L16.0504 21.84L16.2804 21.51L16.3604 21.1L16.2804 20.69L16.0504 20.36L15.7204 20.13L15.3104 20.05L14.9004 20.13L14.5704 20.36Z" fill="white"/>
</g>
<defs>
<clipPath id="clip0_328_208">
<rect width="24" height="24" fill="white"/>
</clipPath>
</defs>
</svg>
