<svg width="24" height="24" viewBox="0 0 24 24" fill="none" xmlns="http://www.w3.org/2000/svg">
<g clip-path="url(#clip0_329_250)">
<path d="M23.1503 2.58745L18.2103 0.210451C17.9312 0.0760071 17.6171 0.0316962 17.3116 0.0836541C17.0061 0.135612 16.7244 0.281268 16.5053 0.500451L7.04534 9.13045L2.92534 6.00245C2.73947 5.86146 2.51011 5.78998 2.27704 5.80039C2.04398 5.8108 1.82191 5.90245 1.64934 6.05945L0.327344 7.26145C0.224324 7.3551 0.141995 7.46923 0.0856271 7.59653C0.029259 7.72384 9.43624e-05 7.86151 2.28604e-07 8.00073C-9.39052e-05 8.13995 0.0288846 8.27766 0.0850804 8.40504C0.141276 8.53242 0.223451 8.64666 0.326344 8.74045L3.89934 12.0005L0.326344 15.2605C0.223451 15.3542 0.141276 15.4685 0.0850804 15.5959C0.0288846 15.7232 -9.39052e-05 15.8609 2.28604e-07 16.0002C9.43624e-05 16.1394 0.029259 16.2771 0.0856271 16.4044C0.141995 16.5317 0.224324 16.6458 0.327344 16.7395L1.65034 17.9405C1.82291 18.0974 2.04498 18.1891 2.27804 18.1995C2.51111 18.2099 2.74047 18.1384 2.92634 17.9974L7.04634 14.8695L16.5063 23.4995C16.7251 23.7187 17.0067 23.8644 17.3121 23.9163C17.6174 23.9683 17.9313 23.924 18.2103 23.7894L23.1523 21.4125C23.4066 21.2897 23.6211 21.0978 23.7711 20.8586C23.9211 20.6194 24.0006 20.3428 24.0003 20.0604V3.93945C24.0004 3.65692 23.9206 3.38012 23.7702 3.14093C23.6198 2.90174 23.405 2.70988 23.1503 2.58745ZM18.0043 17.4485L10.8263 12.0005L18.0043 6.55245V17.4485V17.4485Z" fill="white"/>
</g>
<defs>
<clipPath id="clip0_329_250">
<rect width="24" height="24" fill="white"/>
</clipPath>
</defs>
</svg>
